<?xml version="1.0" encoding="UTF-8" standalone="no"?>
<!-- Created with Inkscape (http://www.inkscape.org/) -->

<svg
   xmlns:dc="http://purl.org/dc/elements/1.1/"
   xmlns:cc="http://creativecommons.org/ns#"
   xmlns:rdf="http://www.w3.org/1999/02/22-rdf-syntax-ns#"
   xmlns:svg="http://www.w3.org/2000/svg"
   xmlns="http://www.w3.org/2000/svg"
   xmlns:sodipodi="http://sodipodi.sourceforge.net/DTD/sodipodi-0.dtd"
   xmlns:inkscape="http://www.inkscape.org/namespaces/inkscape"
   width="210mm"
   height="297mm"
   viewBox="0 0 210 297"
   version="1.1"
   id="svg903"
   inkscape:version="0.92.3 (2405546, 2018-03-11)"
   sodipodi:docname="BabyUpInThisBitchOTP.svg">
  <defs
     id="defs897" />
  <sodipodi:namedview
     id="base"
     pagecolor="#ffffff"
     bordercolor="#666666"
     borderopacity="1.0"
     inkscape:pageopacity="0.0"
     inkscape:pageshadow="2"
     inkscape:zoom="1.4"
     inkscape:cx="351.10503"
     inkscape:cy="501.54927"
     inkscape:document-units="mm"
     inkscape:current-layer="layer1"
     showgrid="false"
     inkscape:window-width="2354"
     inkscape:window-height="1368"
     inkscape:window-x="-7"
     inkscape:window-y="0"
     inkscape:window-maximized="0" />
  <metadata
     id="metadata900">
    <rdf:RDF>
      <cc:Work
         rdf:about="">
        <dc:format>image/svg+xml</dc:format>
        <dc:type
           rdf:resource="http://purl.org/dc/dcmitype/StillImage" />
        <dc:title></dc:title>
      </cc:Work>
    </rdf:RDF>
  </metadata>
  <g
     inkscape:label="Layer 1"
     inkscape:groupmode="layer"
     id="layer1">
    <path
       style="fill:#000000;stroke-width:0.04233333"
       d="m 104.69406,207.9613 c -1.00344,-0.21176 -1.89,-0.89517 -2.36166,-1.8205 -0.12045,-0.2363 -0.219,-0.45731 -0.219,-0.49112 0,-0.0355 -0.0403,-0.0615 -0.0952,-0.0616 -0.42576,-6.4e-4 -3.76796,-0.29323 -4.165288,-0.36466 -0.126124,-0.0227 -0.142854,-0.009 -0.321996,0.26569 -0.499313,0.76527 -1.193233,1.26451 -2.084967,1.50002 -0.462107,0.12205 -1.220238,0.12346 -1.676121,0.003 -1.290472,-0.34064 -2.296058,-1.38266 -2.553834,-2.64638 -0.02864,-0.1404 -0.07922,-0.26995 -0.112391,-0.28789 -0.03318,-0.0179 -0.422271,-0.11977 -0.864654,-0.22631 -0.892184,-0.21486 -2.097845,-0.53934 -2.840656,-0.7645 l -0.485792,-0.14725 -0.238793,0.25793 c -0.463991,0.50117 -1.087146,0.85802 -1.776455,1.01731 -0.585119,0.13521 -1.274026,0.10336 -1.833804,-0.0848 -1.379873,-0.46377 -2.272622,-1.61972 -2.401658,-3.10972 l -0.03251,-0.3754 -0.6985,-0.30578 c -0.862725,-0.37768 -1.812302,-0.82259 -2.634316,-1.23428 l -0.625689,-0.31337 -0.235453,0.19178 c -0.298497,0.24313 -0.80969,0.50098 -1.233791,0.62233 -0.47597,0.13619 -1.330037,0.13503 -1.811251,-0.002 -0.602775,-0.17222 -1.043834,-0.43678 -1.528884,-0.91703 -0.386113,-0.38231 -0.449831,-0.46825 -0.64802,-0.87401 -0.295421,-0.60484 -0.402801,-1.10838 -0.368757,-1.72924 0.01341,-0.24448 0.03599,-0.48474 0.05018,-0.53393 0.02238,-0.0776 -0.0669,-0.15165 -0.673286,-0.55877 -0.807951,-0.54243 -1.8553,-1.28255 -2.455265,-1.73503 l -0.417031,-0.31452 -0.344969,0.17225 c -0.563544,0.28139 -0.925416,0.36404 -1.593802,0.36404 -0.464402,0 -0.633372,-0.0177 -0.901665,-0.0945 -1.44038,-0.41212 -2.440097,-1.63727 -2.555327,-3.13155 -0.03059,-0.39673 0.03584,-0.90731 0.169673,-1.30406 l 0.09543,-0.28289 -1.547304,-1.55323 -1.547304,-1.55323 -0.296333,0.0993 c -1.573919,0.52735 -3.362963,-0.19235 -4.135178,-1.66353 -0.256397,-0.48847 -0.371068,-0.90406 -0.402239,-1.45781 -0.03742,-0.66472 0.133775,-1.39319 0.44705,-1.90233 l 0.120131,-0.19523 -0.463251,-0.63359 c -0.481031,-0.65791 -1.364019,-1.92579 -1.792359,-2.57364 -0.223439,-0.33795 -0.257413,-0.37139 -0.354955,-0.34936 -0.05933,0.0134 -0.30789,0.0359 -0.552365,0.0501 -0.619831,0.0359 -1.122076,-0.0709 -1.729242,-0.36742 -0.405767,-0.19819 -0.491706,-0.26191 -0.874007,-0.64802 -0.480262,-0.48505 -0.744813,-0.92611 -0.917037,-1.52889 -0.137492,-0.48121 -0.138651,-1.33528 -0.0025,-1.81125 0.121294,-0.4239 0.379172,-0.93526 0.62198,-1.23336 0.105286,-0.12926 0.191429,-0.25208 0.191429,-0.27292 0,-0.0208 -0.235724,-0.53071 -0.523831,-1.13302 -0.498503,-1.04216 -1.167278,-2.51735 -1.227693,-2.70806 -0.02528,-0.0798 -0.07111,-0.0917 -0.445487,-0.11629 -1.478719,-0.0969 -2.666203,-1.00267 -3.14418,-2.39826 -0.13097,-0.3824 -0.137818,-0.43338 -0.139357,-1.03717 -0.0018,-0.71729 0.04906,-0.97413 0.297004,-1.49907 0.200532,-0.42457 0.467488,-0.78851 0.805723,-1.09844 l 0.281949,-0.25836 -0.306165,-1.08473 c -0.16839,-0.5966 -0.416814,-1.53201 -0.552051,-2.07869 -0.135238,-0.54668 -0.25266,-1.00074 -0.260938,-1.00901 -0.0083,-0.008 -0.150544,-0.0433 -0.316147,-0.0778 -1.315699,-0.27432 -2.339649,-1.25022 -2.689292,-2.56307 -0.120782,-0.45352 -0.119039,-1.21092 0.0039,-1.67612 0.241641,-0.91469 0.762868,-1.62335 1.563486,-2.1257 l 0.310712,-0.19496 -0.02486,-0.17317 c -0.08169,-0.56895 -0.287835,-2.98292 -0.33245,-3.89306 l -0.01011,-0.20622 -0.371182,-0.15972 c -0.527411,-0.22695 -0.871006,-0.46533 -1.254218,-0.87017 -0.263083,-0.27793 -0.379872,-0.44542 -0.551766,-0.79131 -0.509105,-1.02444 -0.508035,-2.08533 0.0031,-3.11882 0.196353,-0.39699 0.269039,-0.49505 0.647272,-0.87329 0.379577,-0.37957 0.474595,-0.44985 0.870581,-0.64387 0.244475,-0.11979 0.493887,-0.2294 0.554249,-0.24358 l 0.10975,-0.0258 0.05145,-0.79083 c 0.07188,-1.1049 0.265493,-3.1562 0.323086,-3.42309 0.0162,-0.0751 -0.01538,-0.10987 -0.169618,-0.1869 -0.564094,-0.28173 -1.138743,-0.87809 -1.444218,-1.49879 -0.273041,-0.55479 -0.364775,-0.94871 -0.364775,-1.56639 0,-1.01102 0.352765,-1.82034 1.101177,-2.52635 0.473788,-0.44696 1.036034,-0.73375 1.71407,-0.87434 l 0.340688,-0.0706 0.283391,-1.12183 c 0.263228,-1.04202 0.71203,-2.66123 0.806467,-2.90962 0.03431,-0.0902 0.02536,-0.11838 -0.05548,-0.17419 -0.38655,-0.26686 -0.818865,-0.80062 -1.065811,-1.31591 -0.364503,-0.76059 -0.424911,-1.74363 -0.156265,-2.54295 0.474403,-1.41153 1.669845,-2.31295 3.182108,-2.39948 l 0.448611,-0.0257 0.418063,-0.93584 c 0.229935,-0.51471 0.633087,-1.37048 0.895893,-1.90171 0.262807,-0.53123 0.47783,-0.98212 0.47783,-1.00199 0,-0.0199 -0.09536,-0.1472 -0.211913,-0.28297 -0.265905,-0.30973 -0.559379,-0.87058 -0.684463,-1.30806 -0.137571,-0.48115 -0.137571,-1.33341 0,-1.81456 0.452093,-1.58117 1.909243,-2.63601 3.521043,-2.5489 0.244475,0.0132 0.517724,0.0452 0.607219,0.071 0.0895,0.0258 0.166945,0.0408 0.172109,0.0333 0.0052,-0.008 0.301597,-0.4423 0.658741,-0.96617 0.357143,-0.52388 0.906933,-1.30323 1.221754,-1.7319 l 0.572402,-0.7794 -0.07779,-0.13076 c -0.421027,-0.70776 -0.550257,-1.16211 -0.548924,-1.92994 8.09e-4,-0.46546 0.0189,-0.63434 0.09748,-0.91017 0.280656,-0.98509 0.995915,-1.817838 1.927349,-2.243938 0.814797,-0.37274 1.722906,-0.40833 2.591999,-0.10158 l 0.353449,0.12475 1.505062,-1.50343 1.505063,-1.50343 -0.125178,-0.35465 c -0.161025,-0.45622 -0.234677,-0.9643 -0.201727,-1.39158 0.09805,-1.27147 0.80792,-2.32252 1.961413,-2.9041 0.999779,-0.50408 2.345403,-0.43857 3.301835,0.16075 l 0.261089,0.1636 0.732351,-0.53318 c 0.760346,-0.55356 2.023574,-1.43032 2.48424,-1.7242 0.23157,-0.14774 0.262655,-0.18284 0.243692,-0.27517 -0.0899,-0.43774 -0.116534,-0.74793 -0.09449,-1.10067 0.09244,-1.47911 1.105872,-2.72725 2.549583,-3.14004 0.478151,-0.13671 1.333704,-0.13752 1.808363,-0.002 0.454776,0.13013 0.93424,0.3804 1.313924,0.68584 l 0.320271,0.25764 0.469412,-0.23542 c 0.565519,-0.28362 2.155684,-1.0226 2.858475,-1.32839 l 0.508,-0.22103 0.0068,-0.47437 c 0.01728,-1.2018 0.651802,-2.28609 1.701084,-2.906846 0.952551,-0.56353 2.234129,-0.621353 3.22688,-0.14559 0.5271,0.252606 1.027819,0.661726 1.334029,1.089996 l 0.08622,0.12058 1.034652,-0.29514 c 0.569057,-0.16233 1.489401,-0.40709 2.045208,-0.54392 0.555807,-0.13683 1.015797,-0.267826 1.022206,-0.291109 0.0064,-0.02328 0.03971,-0.194817 0.07402,-0.381185 0.244534,-1.328514 1.236319,-2.38608 2.567093,-2.737355 0.454093,-0.119864 1.213172,-0.118835 1.676121,0.0023 0.959476,0.251001 1.837334,0.943127 2.240478,1.766452 0.107955,0.22047 0.119338,0.229974 0.248662,0.207605 0.279963,-0.04843 1.821582,-0.191811 2.760194,-0.256724 1.43411,-0.09918 1.32275,-0.07607 1.37929,-0.286264 0.13541,-0.503399 0.49374,-1.084556 0.93163,-1.510968 1.14155,-1.111647 2.96255,-1.289217 4.29576,-0.418889 0.63193,0.412522 1.16878,1.09632 1.39571,1.777727 l 0.10958,0.329045 0.21968,0.02263 c 0.12083,0.01244 0.53401,0.04281 0.91818,0.06748 0.72065,0.04627 2.77244,0.23851 2.96785,0.278069 0.0988,0.02001 0.12255,-0.0018 0.22749,-0.209203 0.42365,-0.837329 1.2882,-1.517735 2.2445,-1.766429 0.39981,-0.103976 1.12988,-0.123317 1.524,-0.04038 0.63872,0.134415 1.22757,0.44729 1.70571,0.906291 0.56958,0.546792 0.90582,1.186925 1.03795,1.976028 l 0.051,0.304726 1.07916,0.271243 c 0.59354,0.14918 1.51635,0.39627 2.0507,0.54908 l 0.97154,0.27785 0.0858,-0.12005 c 0.41926,-0.58643 1.18414,-1.11096 1.90809,-1.308521 0.33741,-0.09208 1.12269,-0.125978 1.47938,-0.06386 0.42204,0.0735 0.96243,0.284189 1.30561,0.509051 0.97116,0.63634 1.55344,1.68421 1.56893,2.82343 l 0.006,0.47147 0.93133,0.41447 c 0.51224,0.22796 1.37646,0.62992 1.9205,0.89326 l 0.98916,0.47879 0.31772,-0.25559 c 0.37731,-0.30353 0.85751,-0.55392 1.31137,-0.68379 0.47597,-0.13619 1.33004,-0.13503 1.81125,0.002 0.60278,0.17223 1.04384,0.43678 1.52889,0.91704 0.38605,0.38224 0.44985,0.46828 0.64789,0.87373 0.35849,0.73398 0.46122,1.44217 0.31839,2.19507 -0.0363,0.19135 -0.0601,0.35266 -0.0529,0.35848 0.007,0.006 0.27978,0.1879 0.60574,0.40462 0.72522,0.48215 1.36278,0.92808 2.21577,1.54978 l 0.64943,0.47334 0.26074,-0.16338 c 0.76909,-0.48193 1.84273,-0.63023 2.73723,-0.37808 1.09342,0.30822 1.98089,1.16045 2.35661,2.26304 0.23939,0.7025 0.22902,1.50874 -0.0288,2.23915 l -0.12916,0.36592 1.50566,1.50313 1.50565,1.50312 0.3529,-0.12455 c 1.91413,-0.67561 3.95914,0.3892 4.52137,2.354208 0.0769,0.26862 0.0944,0.43671 0.0942,0.90167 -4.2e-4,0.77213 -0.12922,1.22526 -0.54943,1.93205 l -0.079,0.13289 0.25058,0.33278 c 0.40925,0.54348 1.36717,1.89888 1.79874,2.54512 0.36883,0.55228 0.41094,0.60017 0.508,0.57764 0.83933,-0.19479 1.61625,-0.10357 2.40685,0.28258 0.40546,0.19804 0.4915,0.26184 0.87374,0.64789 0.48026,0.48505 0.74481,0.92611 0.91703,1.52888 0.13749,0.48122 0.13865,1.33528 0.002,1.81125 -0.12714,0.44435 -0.37796,0.93057 -0.66215,1.28364 -0.12917,0.16048 -0.2351,0.30317 -0.23539,0.31709 -4.2e-4,0.0139 0.25392,0.54732 0.56491,1.18533 0.311,0.63802 0.71401,1.49542 0.89558,1.90535 l 0.33013,0.74533 0.44892,0.0257 c 1.51211,0.0865 2.70742,0.9877 3.18263,2.3995 0.11538,0.34276 0.13828,0.48033 0.15502,0.93133 0.0231,0.62192 -0.0621,1.06577 -0.30596,1.5935 -0.23697,0.51289 -0.67725,1.06211 -1.06696,1.33097 l -0.092,0.0635 0.18853,0.63327 c 0.20243,0.67993 0.56112,2.01404 0.79054,2.94029 l 0.14151,0.57135 0.33607,0.0703 c 1.36933,0.28622 2.3833,1.23976 2.73495,2.57193 0.11986,0.45409 0.11883,1.21317 -0.002,1.67612 -0.24507,0.93682 -0.93469,1.82613 -1.72035,2.21851 -0.1554,0.0776 -0.18566,0.11126 -0.16808,0.1869 0.0436,0.18756 0.2316,2.15683 0.30239,3.16767 l 0.0731,1.04342 0.17201,0.0509 c 0.0946,0.028 0.33975,0.13718 0.54474,0.24264 0.43041,0.22143 0.95241,0.68345 1.22394,1.08329 0.82314,1.21213 0.82314,2.74022 0,3.95235 -0.29065,0.428 -0.80194,0.87161 -1.27114,1.10288 -0.2256,0.1112 -0.4721,0.22425 -0.54777,0.25122 -0.1339,0.0477 -0.13759,0.0557 -0.13766,0.29613 0,0.47427 -0.2269,3.19044 -0.32136,3.84927 l -0.0248,0.17316 0.31071,0.19497 c 0.61209,0.38406 1.01156,0.82533 1.31116,1.44836 0.25238,0.52484 0.34188,0.92481 0.34101,1.524 -10e-4,1.02795 -0.35598,1.83033 -1.12659,2.54999 -0.4623,0.43174 -1.03119,0.70887 -1.81659,0.88494 l -0.16239,0.0364 -0.30719,1.22766 c -0.16895,0.67522 -0.41821,1.61298 -0.55391,2.08392 l -0.24672,0.85625 0.28393,0.26017 c 0.52617,0.48213 0.88405,1.09845 1.04678,1.80269 0.13505,0.58441 0.10333,1.27367 -0.0844,1.83381 -0.46506,1.38773 -1.65996,2.30119 -3.13678,2.39797 l -0.41286,0.0271 -0.0968,0.2374 c -0.20115,0.49327 -0.93536,2.08869 -1.32182,2.87229 l -0.40173,0.81456 0.20889,0.26029 c 0.26046,0.32455 0.51307,0.82172 0.63629,1.25234 0.0766,0.26766 0.0943,0.43696 0.0943,0.90109 0,0.68556 -0.0854,1.0409 -0.39167,1.62983 -0.16035,0.30833 -0.27892,0.46226 -0.62167,0.80708 -0.37745,0.37972 -0.47223,0.45016 -0.87101,0.64741 -0.60314,0.29832 -1.10847,0.40627 -1.7327,0.37016 -0.24447,-0.0141 -0.49252,-0.0366 -0.55122,-0.0499 -0.0986,-0.0223 -0.14416,0.0317 -0.59852,0.7092 -0.44492,0.66346 -1.17054,1.69341 -1.78222,2.52969 l -0.23016,0.31468 0.13933,0.23565 c 0.17368,0.29373 0.33735,0.77877 0.40184,1.1908 0.0587,0.37517 0.026,1.01291 -0.0704,1.37318 -0.27617,1.03157 -1.07098,1.93951 -2.04075,2.33122 -0.78937,0.31884 -1.62525,0.34928 -2.41055,0.0878 l -0.28682,-0.0955 -1.54755,1.55214 -1.54755,1.55214 0.0957,0.28363 c 0.31886,0.94528 0.19855,1.9998 -0.3299,2.89148 -0.1864,0.31453 -0.67131,0.82668 -0.98352,1.03876 -0.63872,0.43389 -1.1811,0.59872 -1.97366,0.59979 -0.66785,8.9e-4 -1.02914,-0.0813 -1.59195,-0.36234 l -0.34312,-0.17132 -0.65171,0.48413 c -0.68347,0.50773 -1.63474,1.17541 -2.44346,1.71501 -0.40853,0.27259 -0.47562,0.33294 -0.45385,0.40831 0.014,0.0486 0.0365,0.28846 0.0499,0.53293 0.0343,0.62531 -0.0743,1.13186 -0.3715,1.7327 -0.19725,0.39878 -0.26769,0.49356 -0.64741,0.87101 -0.34482,0.34275 -0.49875,0.46133 -0.80708,0.62168 -0.58893,0.30627 -0.94427,0.39166 -1.62984,0.39166 -0.46412,0 -0.63342,-0.0177 -0.90108,-0.0943 -0.42289,-0.12101 -0.93509,-0.37903 -1.23125,-0.62026 l -0.2329,-0.18971 -1.07163,0.52426 c -0.5894,0.28833 -1.48121,0.70636 -1.9818,0.92895 l -0.91017,0.40469 -0.0325,0.37108 c -0.12998,1.48378 -1.02839,2.64559 -2.40165,3.10581 -0.56014,0.18771 -1.2494,0.21943 -1.83381,0.0844 -0.68737,-0.15883 -1.31254,-0.51622 -1.77297,-1.01353 l -0.2353,-0.25416 -0.88354,0.25503 c -0.48596,0.14026 -1.436,0.39478 -2.11122,0.56559 -0.70494,0.17834 -1.23882,0.33429 -1.25386,0.36627 -0.0144,0.0306 -0.0572,0.18904 -0.095,0.35202 -0.11372,0.48961 -0.44294,1.10242 -0.7945,1.47886 -0.72559,0.77696 -1.52469,1.13111 -2.5556,1.1326 -0.59919,8.5e-4 -0.99916,-0.0886 -1.524,-0.34101 -0.60582,-0.29132 -1.02747,-0.66507 -1.40763,-1.24772 -0.1792,-0.27465 -0.19583,-0.28837 -0.322,-0.26556 -0.37822,0.0684 -2.44423,0.25483 -3.82662,0.34538 -0.28062,0.0184 -0.43386,0.0455 -0.43376,0.0768 0,0.0266 -0.0987,0.24837 -0.21951,0.49285 -0.19475,0.39411 -0.26795,0.4928 -0.64573,0.87058 -0.37823,0.37823 -0.4763,0.45092 -0.87328,0.64727 -0.74738,0.36966 -1.50136,0.47027 -2.28498,0.3049 z m -2.39372,-4.91116 c 0.37838,-0.77816 1.07746,-1.42067 1.87175,-1.72027 1.68449,-0.63539 3.54926,0.096 4.34725,1.70497 l 0.17404,0.35093 0.27659,-0.0214 c 0.15213,-0.0118 0.66712,-0.05 1.14443,-0.0851 0.90962,-0.0667 2.51524,-0.22225 2.62557,-0.25429 0.0384,-0.0111 0.087,-0.1171 0.12026,-0.26233 0.1313,-0.57278 0.61121,-1.36226 1.05191,-1.73047 0.72258,-0.60371 1.41788,-0.8618 2.32324,-0.86238 1.14123,-7.1e-4 2.20836,0.55848 2.84715,1.49196 0.0792,0.11578 0.17028,0.20108 0.21462,0.20108 0.18802,0 3.39209,-0.84715 3.81762,-1.00937 0.10223,-0.039 0.1117,-0.0656 0.13616,-0.38285 0.0321,-0.41625 0.23115,-1.03944 0.44561,-1.39507 0.48522,-0.80466 1.25357,-1.38578 2.14469,-1.62209 0.4341,-0.11512 1.21733,-0.12573 1.64004,-0.0222 0.60035,0.147 1.1922,0.47233 1.64495,0.90418 0.20216,0.19283 0.26108,0.2276 0.34227,0.20202 0.16579,-0.0523 1.87109,-0.83161 2.76507,-1.26371 l 0.84667,-0.40923 v -0.60174 c 0,-0.49948 0.0165,-0.65816 0.0962,-0.93367 0.34806,-1.20289 1.25283,-2.10664 2.45278,-2.44999 0.4718,-0.135 1.33049,-0.13497 1.80243,0 0.3755,0.10744 0.84888,0.33364 1.13516,0.54242 l 0.19501,0.14221 0.79983,-0.54136 c 1.41222,-0.95585 2.55695,-1.79884 2.5562,-1.88242 -4.2e-4,-0.0281 -0.0298,-0.14626 -0.0656,-0.26268 -0.0947,-0.30755 -0.12598,-1.01045 -0.0626,-1.40497 0.071,-0.44222 0.25372,-0.92987 0.49094,-1.31046 0.88867,-1.42582 2.73077,-2.00576 4.27498,-1.34587 0.18722,0.08 0.35734,0.14547 0.37803,0.14547 0.0458,0 2.50049,-2.43753 2.73896,-2.71981 l 0.16979,-0.20096 -0.14931,-0.34937 c -0.6639,-1.5534 -0.0877,-3.39285 1.34202,-4.28393 0.38031,-0.23704 0.86819,-0.41989 1.30946,-0.49078 0.40586,-0.0652 1.06067,-0.0344 1.42139,0.0668 0.1549,0.0435 0.27924,0.0584 0.30046,0.0362 0.10738,-0.11259 1.27533,-1.76391 1.77074,-2.50358 l 0.57398,-0.85697 -0.12893,-0.1802 c -0.19991,-0.27944 -0.42603,-0.75757 -0.52984,-1.12037 -0.13504,-0.47193 -0.13507,-1.33063 0,-1.80242 0.34059,-1.1903 1.23869,-2.09591 2.4275,-2.4478 0.24234,-0.0717 0.44403,-0.0949 0.90256,-0.10372 l 0.59048,-0.0114 0.25177,-0.5011 c 0.30626,-0.60957 1.04515,-2.2036 1.29661,-2.79725 l 0.18362,-0.43346 -0.21575,-0.22813 c -0.26618,-0.28144 -0.55578,-0.72404 -0.70334,-1.0749 -0.18739,-0.44557 -0.2513,-0.789 -0.25004,-1.34371 0.001,-0.62435 0.0946,-1.01262 0.38127,-1.58749 0.16836,-0.33771 0.26519,-0.46734 0.60403,-0.80871 0.24947,-0.25133 0.51667,-0.47273 0.69987,-0.57992 0.37748,-0.22086 0.97826,-0.42171 1.37046,-0.45816 0.21585,-0.0201 0.31591,-0.0483 0.34119,-0.0962 0.0844,-0.16003 0.83049,-2.94565 1.04003,-3.88313 0.0155,-0.0695 -0.0206,-0.11694 -0.15926,-0.20867 -0.63892,-0.42282 -1.1774,-1.21032 -1.38525,-2.02588 -0.11642,-0.45679 -0.11586,-1.14376 0.001,-1.63365 0.28516,-1.19206 1.24598,-2.19533 2.41717,-2.52395 0.22918,-0.0643 0.24326,-0.0761 0.26593,-0.22189 0.083,-0.53423 0.32057,-3.37651 0.32057,-3.83564 v -0.19079 l -0.29059,-0.14633 c -1.12521,-0.56662 -1.86834,-1.78847 -1.86834,-3.07199 0,-1.28805 0.73916,-2.50338 1.86841,-3.07206 0.22913,-0.11539 0.29058,-0.16637 0.29052,-0.24106 -4.2e-4,-0.35258 -0.20016,-2.65822 -0.33115,-3.81971 l -0.0286,-0.25366 -0.3175,-0.11018 c -1.22034,-0.4235 -2.04157,-1.30704 -2.32892,-2.5056 -0.11452,-0.47767 -0.11398,-1.16986 0.001,-1.62204 0.19926,-0.78188 0.68797,-1.52297 1.28884,-1.95444 0.11732,-0.0842 0.21816,-0.15603 0.22409,-0.15951 0.035,-0.0206 -0.68449,-2.75336 -0.96511,-3.66548 l -0.12519,-0.40691 -0.28573,-0.0292 c -0.37968,-0.0388 -0.97947,-0.24276 -1.33847,-0.45517 -0.35463,-0.20983 -0.86817,-0.68973 -1.09432,-1.02264 -0.41283,-0.60772 -0.59477,-1.20401 -0.59646,-1.95485 -0.001,-0.55471 0.0627,-0.89814 0.25005,-1.3437 0.14109,-0.3355 0.43023,-0.78408 0.67195,-1.0425 l 0.18726,-0.2002 -0.30901,-0.69647 c -0.39243,-0.88449 -0.84934,-1.85933 -1.19182,-2.54277 l -0.26764,-0.5341 -0.54231,-0.023 c -0.62737,-0.0266 -0.99151,-0.11639 -1.49163,-0.36784 -0.85962,-0.43221 -1.51712,-1.23532 -1.78855,-2.18465 -0.13672,-0.47815 -0.13752,-1.33371 -0.002,-1.80836 0.0861,-0.30093 0.32063,-0.81239 0.5026,-1.09612 l 0.0727,-0.11336 -0.3572,-0.54077 c -0.33103,-0.50115 -1.34746,-1.94308 -1.83919,-2.6091 -0.19543,-0.26472 -0.22091,-0.28445 -0.33835,-0.26208 -1.10894,0.21126 -1.93811,0.0831 -2.75446,-0.42569 -1.40655,-0.87667 -2.00372,-2.72035 -1.37042,-4.231 l 0.12341,-0.29437 -1.49796,-1.493828 -1.49795,-1.49382 -0.22664,0.0997 c -0.44116,0.19409 -0.78079,0.2578 -1.36964,0.2569 -0.64225,-9.8e-4 -1.00133,-0.084 -1.54388,-0.35675 -1.36097,-0.68428 -2.11723,-2.18353 -1.85812,-3.68364 0.0261,-0.15135 0.0498,-0.31094 0.0526,-0.35466 0.006,-0.0903 -1.15142,-0.94746 -2.58504,-1.91487 l -0.85443,-0.57658 -0.11923,0.0842 c -0.22659,0.16009 -0.73074,0.39083 -1.0594,0.48487 -0.47193,0.13504 -1.33063,0.13507 -1.80242,9e-5 -1.54102,-0.44096 -2.57027,-1.79709 -2.57027,-3.38659 v -0.3754 l -1.00541,-0.49261 c -0.55298,-0.27094 -1.41391,-0.67335 -1.91316,-0.89425 l -0.90775,-0.40165 -0.18227,0.16802 c -0.64377,0.5934 -1.45979,0.90388 -2.36257,0.8989 -1.01267,-0.006 -1.80755,-0.34909 -2.50341,-1.08182 -0.49556,-0.52183 -0.79863,-1.13372 -0.9173,-1.85203 l -0.0524,-0.3175 -0.99392,-0.28481 c -0.54666,-0.15665 -1.46797,-0.40287 -2.04738,-0.54716 l -1.05345,-0.26235 -0.0886,0.12383 c -0.40998,0.57312 -1.0918,1.05401 -1.82618,1.28804 -0.44985,0.14336 -1.2733,0.16581 -1.76569,0.0481 -0.8043,-0.19221 -1.47615,-0.62164 -1.95914,-1.25222 -0.22994,-0.3002 -0.53873,-0.90211 -0.5914,-1.15277 -0.0242,-0.11508 -0.0506,-0.13774 -0.18433,-0.15828 -0.47573,-0.0731 -2.46635,-0.25336 -3.30994,-0.29983 -0.24447,-0.0135 -0.5207,-0.0336 -0.61383,-0.0448 -0.16894,-0.0203 -0.16963,-0.0198 -0.29459,0.22017 -0.41931,0.8052 -1.27554,1.48649 -2.18191,1.73614 -0.38696,0.10658 -1.39104,0.10658 -1.778,0 -0.90416,-0.24904 -1.75991,-0.92884 -2.18052,-1.73219 l -0.12386,-0.23656 -0.27656,0.0188 c -1.56979,0.1067 -3.329214,0.26379 -3.81816,0.3409 -0.139581,0.022 -0.159347,0.0418 -0.199479,0.19955 -0.07657,0.301 -0.363808,0.83972 -0.616381,1.15602 -0.472694,0.59195 -1.156767,1.02303 -1.907875,1.20229 -0.505214,0.12058 -1.322832,0.0997 -1.778,-0.0453 -0.734538,-0.23408 -1.416155,-0.71489 -1.826391,-1.28834 l -0.08879,-0.12412 -1.286074,0.32585 c -0.707339,0.17922 -1.628487,0.42614 -2.04699,0.54871 l -0.760916,0.22287 -0.05262,0.31624 c -0.119549,0.71843 -0.422512,1.32958 -0.917469,1.85077 -0.696349,0.73326 -1.491924,1.07686 -2.503407,1.0812 -0.553847,0.002 -0.893496,-0.0604 -1.343702,-0.24852 -0.308233,-0.12877 -0.888591,-0.50415 -1.063057,-0.68759 l -0.120759,-0.12698 -0.302574,0.12826 c -0.751386,0.3185 -1.606902,0.71172 -2.529691,1.16272 l -0.99945,0.48847 -0.02447,0.51412 c -0.0285,0.59884 -0.124289,0.98098 -0.366821,1.46335 -0.434875,0.86493 -1.231353,1.51579 -2.190895,1.79035 -0.471794,0.135 -1.330487,0.13497 -1.802424,-8e-5 -0.325593,-0.0932 -0.832277,-0.32444 -1.054241,-0.48121 l -0.114082,-0.0806 -0.309252,0.19789 c -0.478352,0.30608 -1.585621,1.07555 -2.418502,1.68066 -0.707897,0.51431 -0.752849,0.55508 -0.726544,0.65898 0.40439,1.59721 -0.343548,3.2521 -1.800993,3.98489 -0.542556,0.27279 -0.901636,0.35577 -1.543879,0.35675 -0.589094,9e-4 -0.928476,-0.0628 -1.370307,-0.2572 l -0.227306,-0.10001 -1.498543,1.49574 -1.498543,1.495738 0.10087,0.22925 c 0.195274,0.44381 0.258957,0.78245 0.258056,1.37225 -6.73e-4,0.43924 -0.0198,0.61687 -0.09473,0.87992 -0.3721,1.30616 -1.401107,2.25906 -2.711135,2.5106 -0.476244,0.0914 -0.916916,0.0788 -1.552026,-0.0447 -0.122176,-0.0238 -0.143248,-0.003 -0.554826,0.5584 -0.566299,0.77182 -1.145912,1.59825 -1.605753,2.28954 l -0.3748,0.56344 0.07303,0.11389 c 0.182353,0.28439 0.416767,0.79553 0.502926,1.09664 0.07659,0.26766 0.09431,0.43696 0.09431,0.90108 0,0.46413 -0.01772,0.63343 -0.09431,0.90109 -0.274563,0.95954 -0.925426,1.75602 -1.790349,2.19089 -0.493817,0.24829 -0.862542,0.3389 -1.495195,0.36742 l -0.545968,0.0246 -0.477175,0.97791 c -0.262447,0.53786 -0.658956,1.38631 -0.881132,1.88546 l -0.403957,0.90754 0.187815,0.20079 c 0.390322,0.41728 0.713247,1.01984 0.853951,1.59343 0.103535,0.42205 0.0916,1.2044 -0.02501,1.64003 -0.366805,1.37026 -1.498778,2.38488 -2.871791,2.57409 l -0.348904,0.0481 -0.08355,0.25525 c -0.221237,0.67586 -1.044597,3.78699 -1.008157,3.8094 0.666356,0.40986 1.211592,1.13181 1.472068,1.94918 0.143359,0.44986 0.165807,1.2733 0.04814,1.76569 -0.292025,1.22197 -1.148439,2.14434 -2.352043,2.53319 -0.156598,0.0506 -0.292136,0.11369 -0.301197,0.14022 -0.04882,0.14294 -0.358277,3.63694 -0.358277,4.0452 0,0.059 0.07581,0.12105 0.264584,0.2164 1.363086,0.68848 2.121334,2.23436 1.833592,3.73825 -0.197421,1.03183 -0.905532,1.97826 -1.820995,2.43388 l -0.277181,0.13794 8.5e-5,0.22045 c 1.69e-4,0.45543 0.238652,3.29002 0.320023,3.80344 0.02307,0.14557 0.03755,0.15768 0.264905,0.22156 1.198938,0.33689 2.130421,1.31875 2.426517,2.55775 0.117672,0.4924 0.09522,1.31584 -0.04813,1.7657 -0.243714,0.76476 -0.752425,1.46911 -1.343642,1.86036 -0.138598,0.0917 -0.174801,0.13915 -0.159276,0.20867 0.123101,0.55122 0.507737,2.0412 0.747221,2.89455 l 0.299981,1.06892 0.174917,7.2e-4 c 0.254249,10e-4 0.684154,0.10045 1.051496,0.24309 0.784197,0.30451 1.488197,0.97216 1.85768,1.76177 0.212694,0.45454 0.302297,0.87834 0.30542,1.44457 0.003,0.54613 -0.06056,0.88389 -0.254948,1.35466 -0.132922,0.32191 -0.503454,0.88098 -0.728167,1.09867 -0.095,0.0921 -0.172731,0.18543 -0.172731,0.20753 0,0.0739 0.845272,1.94316 1.28241,2.83591 l 0.43209,0.88243 0.592667,0.011 c 0.461591,0.009 0.661687,0.0314 0.904748,0.10339 1.188807,0.35189 2.086901,1.2575 2.427494,2.4478 0.134999,0.4718 0.134966,1.33049 -8.5e-5,1.80242 -0.103805,0.3628 -0.329927,0.84093 -0.529846,1.12037 l -0.128924,0.1802 0.573976,0.85697 c 0.495417,0.73967 1.663363,2.39099 1.770743,2.50358 0.02122,0.0223 0.145563,0.007 0.300463,-0.0362 0.145344,-0.0408 0.450436,-0.0844 0.677982,-0.0969 1.656261,-0.0913 3.098673,0.94632 3.558261,2.55959 0.07494,0.26305 0.09406,0.44068 0.09473,0.87992 9.27e-4,0.60777 -0.06392,0.93742 -0.278066,1.41344 -0.06691,0.14874 -0.121661,0.28926 -0.121661,0.31228 0,0.0495 2.634698,2.70954 2.805384,2.83235 l 0.117218,0.0843 0.348449,-0.14891 c 2.06165,-0.88111 4.416482,0.42746 4.773954,2.65287 0.0641,0.39902 0.03164,1.0959 -0.06611,1.4198 -0.0376,0.12457 -0.05887,0.25123 -0.04727,0.28146 0.03403,0.0887 1.301843,1.01004 2.583637,1.87761 l 0.757429,0.51265 0.195071,-0.14226 c 0.286346,-0.20882 0.759701,-0.43501 1.135232,-0.54246 0.471937,-0.13504 1.330629,-0.13507 1.802424,0 1.198198,0.34285 2.105253,1.2495 2.453418,2.45232 0.07901,0.27297 0.09542,0.433 0.09553,0.93157 l 1.27e-4,0.60197 1.058333,0.507 c 1.060489,0.50804 2.382496,1.11101 2.557935,1.16669 0.07555,0.024 0.140533,-0.0151 0.33774,-0.20323 0.452752,-0.43185 1.044606,-0.75718 1.644956,-0.90418 0.426555,-0.10445 1.207253,-0.093 1.640036,0.024 0.671978,0.18169 1.175118,0.48212 1.65674,0.98927 0.166137,0.17495 0.379476,0.44891 0.474087,0.6088 0.23282,0.3935 0.426563,0.99058 0.459342,1.4156 0.0246,0.31908 0.034,0.34559 0.136296,0.38459 0.412411,0.15722 3.631442,1.00937 3.812934,1.00937 0.0477,0 0.152289,-0.10347 0.267436,-0.26458 0.969226,-1.35611 2.819603,-1.82091 4.334214,-1.08872 0.887221,0.4289 1.630514,1.33953 1.840301,2.2546 0.04243,0.18506 0.07708,0.24985 0.141423,0.26443 0.216768,0.0491 2.040097,0.21331 3.662397,0.3298 0.10477,0.008 0.22905,0.017 0.27618,0.0211 0.0677,0.006 0.12006,-0.0633 0.24943,-0.32935 z M 80.840899,191.03967 c -1.867304,-0.0897 -3.524386,-0.44918 -5.069262,-1.09959 -1.651843,-0.69546 -2.821456,-1.44805 -4.003389,-2.57599 -1.417395,-1.35264 -2.348007,-3.00899 -2.747363,-4.88987 -0.09973,-0.46973 -0.112523,-0.62429 -0.113853,-1.37584 -0.0017,-0.9842 0.04528,-1.28675 0.338622,-2.17866 0.765041,-2.32612 2.428544,-4.16997 4.596005,-5.09426 1.84593,-0.78717 4.15846,-0.88641 6.086566,-0.26119 0.243754,0.079 0.446271,0.13967 0.450036,0.13475 0.07534,-0.0986 1.617347,-3.47648 2.197539,-4.8138 0.746895,-1.72157 3.061665,-6.92405 3.47977,-7.82084 0.497031,-1.06609 1.446593,-2.94896 1.894874,-3.75733 0.810518,-1.46159 1.403155,-2.37068 2.017962,-3.09552 0.160413,-0.18912 0.291659,-0.35755 0.291659,-0.37428 0,-0.0364 -1.311486,0.007 -1.968499,0.0649 -2.964134,0.26173 -5.799315,1.55122 -7.685127,3.49534 -0.538819,0.55547 -0.834364,0.92283 -1.2286,1.52713 -0.802675,1.23038 -1.239851,2.52671 -1.348882,3.99977 -0.04835,0.6532 -0.0028,1.51579 0.100671,1.90734 0.25903,0.98001 0.772452,1.72757 1.406961,2.04861 0.27012,0.13667 0.384544,0.25298 0.419165,0.42609 0.02215,0.11074 0.0086,0.14326 -0.08573,0.20504 -0.232652,0.15244 -0.964873,-0.009 -1.590286,-0.35138 -0.726137,-0.39711 -1.501504,-1.10161 -1.982283,-1.80111 -0.601174,-0.87465 -0.854838,-1.90798 -0.797097,-3.24708 0.100148,-2.32254 1.314807,-4.72175 3.414505,-6.74436 0.969834,-0.93423 2.05032,-1.6867 3.355185,-2.33663 1.751211,-0.87224 3.248401,-1.25843 5.335346,-1.37621 1.328585,-0.075 3.219204,0.0519 4.380793,0.29388 l 0.392616,0.0818 0.348217,-0.18494 c 0.19152,-0.10171 0.529192,-0.24678 0.750384,-0.32237 0.358851,-0.12262 0.4546,-0.13771 0.889,-0.14005 0.447425,-0.002 0.507284,0.007 0.739482,0.11567 0.600537,0.2812 0.969032,0.7033 0.972897,1.11443 0.0028,0.30248 -0.09107,0.39785 -0.427394,0.434 l -0.247544,0.0266 0.304131,0.15966 c 0.775704,0.40724 1.57679,1.00949 2.31797,1.74262 1.349172,1.33453 2.189904,3.08215 2.434444,5.06044 0.0244,0.1973 0.0443,0.65828 0.0443,1.02441 0,1.47697 -0.30564,2.78631 -0.95641,4.09718 -0.996683,2.00765 -2.58688,3.60906 -4.609215,4.64171 -0.33807,0.17263 -0.615484,0.32435 -0.616479,0.33716 -9.74e-4,0.0128 0.137037,0.11425 0.306735,0.22543 2.338861,1.53233 3.631704,4.05067 3.631704,7.07422 0,1.546 -0.305439,2.80796 -1.03999,4.29683 -0.971118,1.96839 -2.438222,3.73382 -4.434074,5.33575 -1.672204,1.34216 -3.840509,2.51554 -5.850102,3.16578 -1.935205,0.62618 -4.037296,0.90369 -6.096,0.80476 z m 1.799167,-3.1053 c 1.653061,-0.14415 3.274555,-0.63789 5.249333,-1.59838 1.75434,-0.85329 3.172176,-1.86003 4.402666,-3.12617 1.94556,-2.00192 2.813402,-4.13878 2.632435,-6.4818 -0.0267,-0.34573 -0.07846,-0.78971 -0.11502,-0.98662 -0.322457,-1.73686 -1.291903,-3.09015 -2.729081,-3.80966 -0.812076,-0.40655 -1.943011,-0.63673 -3.513667,-0.71512 -0.866152,-0.0432 -1.081951,-0.0944 -1.51936,-0.36008 -0.271103,-0.16469 -0.659621,-0.55236 -0.724446,-0.72286 -0.02321,-0.061 -0.04212,-0.1907 -0.04204,-0.28814 5.93e-4,-0.64902 1.037844,-1.05968 2.488942,-0.98541 0.46606,0.0238 0.572253,0.0151 1.013642,-0.0839 1.779396,-0.39908 3.429715,-1.31557 4.754519,-2.64038 1.895005,-1.895 2.951032,-4.45754 2.750617,-6.67461 -0.156993,-1.73671 -0.949909,-3.19999 -2.181377,-4.02561 -0.441359,-0.2959 -1.486052,-0.77437 -1.690764,-0.77437 -0.143247,0 -1.226401,1.51079 -1.859673,2.59388 -1.475482,2.52354 -2.301985,4.26643 -5.043382,10.63528 -1.681217,3.90582 -2.751442,6.32369 -3.198588,7.2263 l -0.140513,0.28364 0.254157,0.28786 c 0.64334,0.72867 0.982938,1.34333 1.210962,2.19184 0.111078,0.41333 0.131729,1.33953 0.03825,1.71553 -0.14028,0.56425 -0.561979,1.1629 -0.952242,1.35182 -0.400752,0.19401 -1.086231,0.0534 -1.211275,-0.2485 -0.04403,-0.10631 -0.04648,-0.21311 -0.01148,-0.50174 0.04276,-0.35263 0.04036,-0.37483 -0.06272,-0.57938 -0.163974,-0.3254 -0.45636,-0.76345 -0.649301,-0.97277 l -0.173692,-0.18843 -0.472703,0.7814 c -1.1019,1.82148 -2.304997,3.30671 -3.227984,3.98497 -0.39458,0.28996 -0.994036,0.60962 -1.326986,0.70762 -0.309253,0.091 -1.203229,0.0922 -1.549337,0.002 -0.485419,-0.12644 -0.81579,-0.42995 -1.002306,-0.92082 -0.248257,-0.65336 -0.04248,-1.56009 0.442244,-1.94875 0.120536,-0.0966 0.213964,-0.13156 0.391369,-0.14628 0.23832,-0.0198 0.492097,0.0485 0.475376,0.12793 -0.005,0.0237 0.01738,0.0527 0.04973,0.0645 0.0342,0.0124 0.04718,0.003 0.03102,-0.0236 -0.01604,-0.026 0.07869,-0.1017 0.224065,-0.17919 0.508813,-0.27119 1.017007,-0.79242 1.641616,-1.68373 0.354629,-0.50604 1.096656,-1.71798 1.409832,-2.30266 l 0.174647,-0.32604 -0.41533,-0.12894 c -1.644587,-0.51054 -2.964705,-0.45319 -4.249979,0.18462 -0.474677,0.23556 -0.768059,0.43296 -1.112404,0.74849 -0.588333,0.5391 -1.175598,1.49362 -1.469163,2.38792 -0.134847,0.41079 -0.139061,0.44529 -0.142208,1.16417 -0.0047,1.07205 0.126468,1.62245 0.630514,2.64583 0.648817,1.31732 1.751976,2.36475 3.318541,3.15089 1.361324,0.68315 2.800024,1.06175 4.498964,1.18393 0.703079,0.0506 2.142578,0.0524 2.703571,0.004 z m 18.635204,-6.43199 c -0.44797,-0.12138 -0.79297,-0.3213 -1.13549,-0.658 -0.677426,-0.66593 -1.085515,-1.5727 -1.204294,-2.6759 -0.0754,-0.70031 0.0215,-1.25535 0.426534,-2.4433 0.629843,-1.84727 1.85013,-4.40029 3.2448,-6.78861 0.65891,-1.12835 1.6827,-2.6315 1.93444,-2.84019 0.0511,-0.0423 0.13025,-0.0504 0.28886,-0.0293 0.75685,0.10039 1.13561,0.68196 1.13561,1.74368 0,0.78119 -0.24391,1.52093 -1.32711,4.02475 -0.29403,0.67967 -0.74611,1.67979 -1.00462,2.2225 -1.37725,2.89135 -2.07195,4.96327 -1.8457,5.50476 0.0807,0.19321 0.19116,0.22717 0.51802,0.15932 0.92581,-0.1922 2.21566,-1.35218 3.71951,-3.34503 0.43155,-0.57187 0.43237,-0.57342 0.57158,-1.0795 0.44312,-1.61095 1.49955,-4.00781 2.86359,-6.49697 0.2488,-0.45402 0.46154,-0.84931 0.47275,-0.87842 0.016,-0.0416 -0.24672,-0.0529 -1.2283,-0.0529 -1.16685,0 -1.25522,-0.005 -1.34861,-0.081 -0.14092,-0.11423 -0.12843,-0.43047 0.0298,-0.75384 0.14391,-0.29417 0.56445,-0.72266 0.8332,-0.849 0.19331,-0.0909 0.24535,-0.0941 1.48676,-0.0941 h 1.28644 l 0.12161,-0.24251 c 0.0669,-0.13338 0.3998,-0.74774 0.73982,-1.36525 1.47225,-2.67373 2.23712,-4.13127 2.23867,-4.26599 4.3e-4,-0.0291 -0.025,-0.0529 -0.0563,-0.0529 -0.11411,0 -0.20795,-0.16151 -0.20414,-0.35135 0.01,-0.47582 0.34141,-0.83049 0.7795,-0.83305 0.17473,-0.001 0.61724,0.13943 0.81154,0.2576 0.26548,0.16145 0.5459,0.4828 0.69794,0.7998 l 0.15227,0.3175 v 0.65617 c 0,0.48747 -0.0201,0.74323 -0.0782,0.99483 -0.19343,0.8381 -0.66375,2.09877 -1.25557,3.3655 l -0.32634,0.6985 1.16613,0.0113 c 1.36211,0.0132 1.34626,0.009 1.30365,0.36936 -0.049,0.41512 -0.42689,0.99403 -0.84778,1.29892 l -0.16513,0.11962 h -1.15773 -1.15774 l -0.12585,0.20108 c -0.0692,0.1106 -0.21679,0.40111 -0.32793,0.64558 -0.11115,0.24448 -0.62454,1.2827 -1.14087,2.30717 -1.0502,2.08374 -1.65777,3.39747 -2.03612,4.40267 -0.71472,1.89885 -0.94225,3.00422 -0.75098,3.64833 0.12556,0.4228 0.38572,0.60361 0.87083,0.60523 0.87655,0.003 1.8357,-0.66026 3.1211,-2.15806 0.63655,-0.74174 1.27014,-1.57456 1.29661,-1.70434 0.0106,-0.0522 0.0418,-0.25676 0.0691,-0.45466 0.15866,-1.14625 0.72074,-2.76143 1.36077,-3.91026 0.32752,-0.58789 1.12317,-1.77009 1.54229,-2.29158 1.14865,-1.42919 2.66314,-2.62792 3.79194,-3.00133 0.42191,-0.13958 0.72776,-0.16584 1.32529,-0.11379 0.91648,0.0798 1.45512,0.27017 1.88148,0.66491 0.90872,0.84131 1.00393,2.08437 0.27153,3.54511 -0.24492,0.48848 -0.53427,0.90575 -0.87131,1.25651 -0.76682,0.79803 -1.39746,1.1246 -2.10928,1.09227 -0.25559,-0.0116 -0.3587,-0.0355 -0.45069,-0.10458 -0.11195,-0.084 -0.11927,-0.10872 -0.11925,-0.40198 1e-5,-0.28156 0.0176,-0.34802 0.17767,-0.67228 0.0977,-0.19791 0.36229,-0.64559 0.58795,-0.99484 0.93188,-1.44225 1.45686,-2.31339 1.45686,-2.41747 0,-0.0156 -0.11511,-0.018 -0.25579,-0.005 -0.62218,0.0564 -1.63044,0.76548 -2.38149,1.6748 -0.91677,1.10998 -1.96008,2.93077 -2.47825,4.3251 -0.53366,1.43598 -0.69718,2.20397 -0.69857,3.28083 -8.5e-4,0.67021 0.007,0.74353 0.11378,1.06687 0.14649,0.4434 0.41006,0.83897 0.67857,1.01842 0.32242,0.21547 0.60888,0.28538 1.16941,0.28538 0.47322,0 0.49599,-0.004 0.81396,-0.15555 0.98376,-0.4678 1.93793,-1.41445 3.36346,-3.33695 0.40526,-0.54654 0.43121,-0.59461 0.59414,-1.10067 0.54869,-1.70415 1.33436,-3.49425 2.51068,-5.72047 0.25957,-0.49126 1.07728,-1.9721 1.81712,-3.29078 2.37198,-4.22776 3.13498,-5.64367 3.13498,-5.81764 0,-0.0348 -0.0452,-0.0746 -0.10048,-0.0885 -0.33582,-0.0843 -0.15583,-0.90255 0.24586,-1.1177 0.0816,-0.0437 0.22403,-0.0684 0.38378,-0.0665 0.55904,0.007 1.18787,0.42001 1.4506,0.95378 0.17449,0.35449 0.21933,0.56829 0.22036,1.05082 0.003,1.15332 -0.49176,2.7592 -1.67502,5.44248 -0.20471,0.46421 -1.17411,2.45375 -2.15423,4.42119 -1.80004,3.61332 -2.14625,4.33795 -2.5242,5.2833 -0.22517,0.56319 -0.54567,1.47096 -0.54567,1.54551 0,0.0254 0.1678,-0.22918 0.3729,-0.56561 2.73925,-4.49343 4.88165,-7.46004 6.69455,-9.27002 1.21281,-1.21086 2.11668,-1.78558 2.81738,-1.7914 0.40149,-0.003 0.62695,0.0705 0.85407,0.2799 0.33992,0.31333 0.47901,0.72277 0.48508,1.42799 0.004,0.51164 -0.072,0.88194 -0.34523,1.67216 -0.30029,0.8686 -1.25322,3.08905 -1.98937,4.6355 -0.9329,1.95975 -1.56734,3.57901 -1.75897,4.48939 -0.10599,0.50351 -0.10654,0.97773 -0.001,1.09412 0.21513,0.23785 0.91587,0.002 1.67619,-0.56361 1.07896,-0.80298 2.76143,-2.86736 4.04725,-4.96596 0.1537,-0.25085 0.30971,-0.47992 0.34669,-0.50902 0.0469,-0.0369 0.2561,-0.0529 0.69112,-0.0529 0.67789,0 0.72734,0.0155 0.78521,0.24607 0.0318,0.12669 -0.14834,0.49749 -0.79607,1.63874 -1.83365,3.23067 -3.86236,5.37588 -5.6457,5.96991 -0.26471,0.0882 -0.44962,0.11742 -0.84667,0.13391 -0.53956,0.0224 -0.87114,-0.0281 -1.24883,-0.19036 -0.27774,-0.1193 -0.76346,-0.52308 -1.02672,-0.8535 -0.24625,-0.30908 -0.57204,-0.90779 -0.68069,-1.25093 -0.22386,-0.70701 -0.27157,-1.70179 -0.11528,-2.40373 0.21537,-0.96721 0.853,-2.6646 1.67328,-4.45427 0.0854,-0.18627 0.12766,-0.3101 0.094,-0.27517 -0.23504,0.24361 -1.45264,2.08537 -2.86555,4.3345 -0.97625,1.55403 -2.40136,3.69836 -2.84308,4.27793 -0.1942,0.2548 -0.45382,0.54531 -0.57693,0.64559 -0.20031,0.16315 -0.24702,0.18227 -0.4445,0.1819 -0.59648,-0.001 -1.21999,-0.5973 -1.76384,-1.68652 -0.17457,-0.34963 -0.46765,-1.15955 -0.46765,-1.29234 0,-0.12816 -0.0749,-0.0695 -0.38523,0.30169 -1.05162,1.25788 -2.20562,2.14631 -3.27661,2.52257 -0.374,0.13139 -0.3946,0.13378 -1.12183,0.13037 -0.65985,-0.003 -0.78635,-0.0156 -1.15727,-0.11491 -0.85119,-0.22778 -1.70147,-0.722 -2.33899,-1.35952 -0.42072,-0.42072 -0.71402,-0.82855 -0.9886,-1.37467 -0.0979,-0.19482 -0.19328,-0.33755 -0.21183,-0.31716 -0.0185,0.0204 -0.225,0.26688 -0.45879,0.54775 -1.04742,1.25838 -2.38309,2.25567 -3.37469,2.51972 -0.63752,0.16977 -1.69152,0.10354 -2.3067,-0.14494 -0.95648,-0.38634 -1.79181,-1.32825 -2.13871,-2.41161 l -0.0923,-0.28814 -0.31123,0.37281 c -0.78142,0.93603 -1.82788,1.80673 -2.68129,2.23096 -0.5938,0.29518 -0.85761,0.36514 -1.46563,0.3887 -0.39525,0.0153 -0.54496,0.003 -0.7958,-0.0649 z m 5.09263,-15.58586 c -0.29789,-0.10227 -0.77216,-0.40615 -0.93577,-0.59959 -0.0632,-0.0747 -0.16427,-0.24065 -0.22458,-0.36871 -0.0938,-0.19911 -0.10919,-0.28803 -0.10649,-0.61384 0.004,-0.41783 0.0476,-0.5601 0.4794,-1.54516 0.1375,-0.31368 0.22816,-0.59114 0.25488,-0.78008 0.0579,-0.40939 0.16194,-0.51109 0.52294,-0.51109 0.20543,0 0.31903,0.0272 0.51467,0.12326 0.34251,0.16818 0.73694,0.5708 0.91651,0.93555 0.12553,0.25499 0.14431,0.33769 0.15884,0.69947 0.0199,0.49572 -0.0314,0.69689 -0.36099,1.41672 -0.27725,0.60541 -0.39391,0.92513 -0.39391,1.07957 0,0.26117 -0.3435,0.32937 -0.8255,0.1639 z m -28.510573,-14.9704 c -0.08098,-0.0399 -0.23146,-0.1532 -0.334397,-0.25183 l -0.187158,-0.17933 0.02676,-0.30812 c 0.01472,-0.16947 0.11314,-0.67007 0.218713,-1.11246 0.656704,-2.75179 1.026694,-4.96576 1.206217,-7.21783 0.02506,-0.31432 0.05584,-1.15252 0.06841,-1.86267 0.02942,-1.66223 0.08034,-1.86701 0.54102,-2.17567 0.113148,-0.0758 0.221032,-0.11033 0.344865,-0.11033 0.152679,0 0.199924,0.0225 0.309283,0.14702 0.31684,0.36085 0.327154,1.03806 0.04576,3.00422 -0.06977,0.48752 -0.120436,0.91615 -0.112583,0.9525 0.0094,0.0433 0.04096,0.015 0.09167,-0.0821 0.04257,-0.0815 0.235021,-0.38629 0.427676,-0.67733 1.05636,-1.59583 2.266552,-2.70154 3.343004,-3.05439 0.409841,-0.13434 0.957643,-0.13318 1.304586,0.003 0.298839,0.1171 0.725411,0.50016 0.884682,0.79444 0.211434,0.39066 0.25847,0.64912 0.233278,1.28186 -0.03359,0.84375 -0.195813,1.49888 -0.561217,2.26649 -0.777444,1.63318 -2.557475,3.25631 -3.965982,3.61639 -0.74095,0.18943 -1.226502,0.15274 -1.522927,-0.11506 -0.09301,-0.084 -0.251116,-0.29288 -0.351354,-0.46411 l -0.18225,-0.31135 -0.09083,0.3939 c -0.220349,0.95561 -0.287098,1.34526 -0.657191,3.83645 -0.160798,1.08237 -0.211501,1.23703 -0.501617,1.53004 -0.19184,0.19376 -0.333021,0.21731 -0.578421,0.0965 z m 3.939802,-6.16414 c 0.464375,-0.16394 0.857389,-0.45091 1.477937,-1.07917 0.827003,-0.83728 1.253943,-1.4754 1.51928,-2.27076 0.411882,-1.23465 0.153742,-2.2225 -0.580771,-2.2225 -0.495872,0 -1.067291,0.34749 -1.786192,1.0862 -1.565783,1.60895 -2.580609,3.55599 -2.154998,4.13457 0.32176,0.43741 0.902462,0.57133 1.524744,0.35166 z m 53.166931,1.59495 c -0.52724,-0.0885 -0.80433,-0.35614 -0.80433,-0.77694 0,-0.2336 0.15854,-0.39123 0.49116,-0.48831 0.2414,-0.0705 0.2651,-0.0699 0.71534,0.0171 0.40375,0.078 0.51914,0.0845 0.86783,0.0486 1.01169,-0.10408 1.87116,-0.37859 2.26328,-0.72287 0.17402,-0.1528 0.19085,-0.279 0.0644,-0.48352 -0.16394,-0.26525 -0.45248,-0.46458 -1.43873,-0.9939 -1.66658,-0.89445 -2.10067,-1.29653 -2.14796,-1.98961 -0.0254,-0.37204 0.0786,-0.83893 0.2733,-1.22767 0.19458,-0.38839 0.7242,-0.94112 1.19733,-1.24958 1.0167,-0.66285 1.94029,-0.99723 2.57729,-0.93311 0.62804,0.0632 0.89315,0.32407 0.89381,0.87947 0,0.16155 -0.024,0.22715 -0.12657,0.34404 -0.21004,0.23921 -0.32508,0.26421 -0.62841,0.13654 -0.14203,-0.0598 -0.32215,-0.10869 -0.40026,-0.10869 -0.17966,0 -0.60544,0.1454 -1.16454,0.39766 -0.99292,0.44801 -1.38448,0.82713 -1.38128,1.33742 0.003,0.51392 0.32789,0.80721 1.61103,1.45532 1.10057,0.55589 1.64766,0.97098 1.86614,1.41589 0.0996,0.20275 0.11829,0.29448 0.11829,0.57954 0,0.88481 -0.5893,1.44435 -2.04704,1.94366 -1.00812,0.34531 -2.18737,0.52172 -2.80013,0.41889 z m -40.410616,-0.0941 c -0.148116,-0.0638 -0.309617,-0.29311 -0.384653,-0.54619 -0.05251,-0.17709 -0.07044,-0.39145 -0.06795,-0.8121 0.0053,-0.88942 0.126373,-1.85211 0.480783,-3.82175 0.116375,-0.64675 0.229278,-1.37719 0.250889,-1.6232 0.04739,-0.53936 0.172,-0.85658 0.388285,-0.98845 0.256244,-0.15622 0.639001,-0.0842 0.890897,0.16774 0.221653,0.22165 0.21369,0.32882 -0.114783,1.54511 -0.350668,1.29846 -0.511975,2.06645 -0.574179,2.73367 -0.06781,0.72733 -0.03266,2.07078 0.06616,2.529 0.07466,0.34618 0.07453,0.35338 -0.0087,0.46566 -0.150719,0.20326 -0.412593,0.35744 -0.634534,0.3736 -0.112235,0.008 -0.243713,-0.002 -0.292181,-0.0231 z m 36.612906,-0.0445 c -0.54007,-0.32931 -0.51913,-1.66866 0.0781,-4.99684 0.1149,-0.64029 0.22958,-1.36419 0.25482,-1.60867 0.0629,-0.60882 0.13782,-0.86303 0.30966,-1.05055 0.13336,-0.14551 0.15942,-0.15595 0.38959,-0.15595 0.28341,0 0.53056,0.10809 0.6676,0.29197 0.13051,0.1751 0.10428,0.45295 -0.1183,1.2532 -0.45797,1.64648 -0.59517,2.33705 -0.66667,3.35556 -0.0541,0.77076 -0.0311,1.45309 0.066,1.95727 0.099,0.51414 0.0903,0.58513 -0.0935,0.76556 -0.28199,0.27676 -0.6235,0.34929 -0.8873,0.18845 z m -15.07508,-0.004 c -0.68186,-0.12169 -1.10347,-0.56398 -1.2817,-1.34458 -0.0679,-0.29747 -0.0555,-1.11446 0.0246,-1.61648 0.039,-0.24448 0.17371,-0.92298 0.29936,-1.50779 0.31933,-1.48624 0.36401,-1.78138 0.2821,-1.86329 -0.0466,-0.0466 -0.11746,-0.0579 -0.25911,-0.0413 -0.57251,0.0671 -0.73626,0.0716 -0.95591,0.0259 -0.32126,-0.0667 -0.50587,-0.23036 -0.57233,-0.50742 -0.0388,-0.16187 -0.0387,-0.24396 6.3e-4,-0.36307 0.0809,-0.24506 0.19903,-0.27272 1.16478,-0.27272 0.49003,0 0.86311,-0.0179 0.91139,-0.0438 0.17323,-0.0927 0.33744,-0.55821 0.70025,-1.98503 0.12685,-0.49881 0.271,-0.97226 0.32035,-1.05211 0.18443,-0.29841 0.57486,-0.3977 0.86317,-0.21951 0.19194,0.11862 0.33295,0.41699 0.29501,0.62421 -0.023,0.12549 -0.54979,2.09119 -0.64064,2.39044 -0.03,0.0989 0.0964,0.0974 1.13282,-0.0135 0.54427,-0.0582 1.01537,-0.0831 1.40475,-0.0741 l 0.58585,0.0135 0.10666,0.12413 c 0.0922,0.10723 0.10414,0.15466 0.0881,0.34859 -0.0349,0.42109 -0.25421,0.54046 -1.11509,0.60701 -1.17332,0.0907 -2.39843,0.25276 -2.55855,0.33846 -0.0816,0.0436 -0.14108,0.24708 -0.39635,1.35464 -0.37766,1.63859 -0.42801,1.94939 -0.42858,2.64583 -5.1e-4,0.5938 0.006,0.64859 0.10531,0.84447 0.14859,0.29408 0.27983,0.37719 0.62577,0.39627 0.47514,0.0262 0.9593,-0.21589 1.80939,-0.90481 0.2101,-0.17026 0.43517,-0.32978 0.50017,-0.3545 0.48558,-0.18462 0.65633,0.25705 0.30434,0.78719 -0.30781,0.46359 -1.02653,1.08257 -1.58867,1.36819 -0.52547,0.267 -1.22027,0.38566 -1.72779,0.29509 z M 75.119971,146.1335 c -0.299695,-0.18437 -0.532714,-0.63459 -0.672585,-1.29951 -0.06675,-0.31733 -0.145995,-1.26095 -0.146615,-1.74588 l -3.81e-4,-0.29099 -0.377258,0.56615 c -0.490638,0.73631 -0.834439,1.15844 -1.32698,1.62931 -0.643333,0.61503 -1.193166,0.93664 -1.756365,1.02735 -0.44964,0.0724 -0.84195,-0.09 -1.201131,-0.49725 -0.393782,-0.44648 -0.52097,-0.89084 -0.516616,-1.80491 0.0034,-0.71988 0.101072,-1.36496 0.391146,-2.58411 0.246767,-1.03713 0.383229,-1.72988 0.412438,-2.09373 0.03946,-0.49158 0.25605,-0.71966 0.683404,-0.71966 0.265949,0 0.461959,0.12617 0.592416,0.38134 0.08267,0.16169 0.09299,0.22784 0.06896,0.44191 -0.03463,0.30848 -0.155048,0.73767 -0.440105,1.56858 -0.587709,1.71311 -0.747742,3.15537 -0.421151,3.79554 0.427692,0.83835 2.099174,-0.41072 3.233973,-2.41669 0.255467,-0.45158 0.570929,-1.14955 0.814535,-1.80218 0.245729,-0.65832 0.457593,-1.11595 0.574708,-1.24138 0.275421,-0.29497 0.693949,-0.29399 0.878333,0.002 0.119001,0.19107 0.09472,0.49915 -0.09599,1.21813 -0.436776,1.64662 -0.502111,3.53745 -0.154443,4.46967 0.04598,0.12329 0.188967,0.34021 0.334853,0.508 0.290589,0.33422 0.335921,0.44812 0.240769,0.60494 -0.09862,0.16253 -0.453766,0.34622 -0.716184,0.37042 -0.188479,0.0174 -0.25258,0.003 -0.399738,-0.0871 z m 46.360929,0.0606 c -0.21521,-0.0326 -0.32334,-0.0924 -0.45942,-0.25414 -0.18088,-0.21497 -0.17829,-0.33206 0.0325,-1.46752 0.50118,-2.69988 0.97751,-5.73914 1.22959,-7.84552 0.22645,-1.89218 0.31603,-2.2615 0.63045,-2.59914 0.15703,-0.16863 0.20417,-0.19486 0.35013,-0.19486 0.26947,0 0.54684,0.20137 0.68099,0.49441 0.10512,0.22959 0.1083,0.2595 0.0822,0.7718 -0.0462,0.90592 -0.19036,1.67713 -0.61788,3.30579 -0.40372,1.53801 -0.8416,3.5997 -1.00459,4.72993 -0.0619,0.42909 -0.0651,0.52697 -0.0187,0.5715 0.0666,0.0639 0.0142,0.13968 0.51905,-0.7506 0.78952,-1.39238 1.67274,-2.62964 2.36732,-3.31627 0.61273,-0.60571 1.14545,-0.90295 1.62702,-0.90783 0.69676,-0.007 0.99226,0.555 1.20508,2.29211 0.25651,2.09365 0.40666,2.67468 0.86957,3.36491 0.24608,0.36693 0.35952,0.59369 0.35952,0.71869 0,0.24269 -0.36165,0.49488 -0.7074,0.49329 -0.37526,-0.002 -0.69661,-0.21088 -0.98307,-0.63985 -0.30037,-0.4498 -0.45465,-1.08583 -0.57365,-2.36488 -0.14116,-1.51721 -0.24006,-2.0027 -0.45097,-2.2136 -0.10773,-0.10774 -0.14848,-0.12223 -0.29022,-0.10322 -0.54478,0.0731 -1.38039,1.1506 -2.96657,3.82543 -1.13142,1.90797 -1.36523,2.16771 -1.88095,2.08957 z m -22.754731,-0.21054 c -0.249348,-0.0311 -0.462191,-0.15858 -0.569439,-0.34114 -0.119684,-0.20373 -0.107611,-0.76363 0.0342,-1.586 0.228444,-1.32476 0.319126,-2.25427 0.36137,-3.70417 l 0.03022,-1.03717 0.122403,-0.22451 c 0.182786,-0.33528 0.402107,-0.51636 0.625182,-0.51616 0.234091,0 0.441067,0.1285 0.530526,0.32885 0.05577,0.12492 0.07064,0.29462 0.07128,0.81399 8.46e-4,0.70083 -0.02773,0.92951 -0.322834,2.58233 -0.233473,1.30762 -0.257654,1.48829 -0.206066,1.53988 0.02921,0.0292 0.06355,0.0166 0.106692,-0.0393 0.106955,-0.13851 0.45491,-0.75708 0.965277,-1.71599 0.26754,-0.50267 0.59234,-1.08515 0.72178,-1.2944 0.8354,-1.35053 1.49596,-1.87752 2.35202,-1.87642 0.92817,0.001 1.40529,0.72765 1.65406,2.51842 0.33796,2.43284 0.35348,2.50813 0.56762,2.75434 0.18064,0.2077 0.37421,0.23028 0.76185,0.0889 0.2107,-0.0769 0.31845,-0.096 0.38901,-0.0692 0.20201,0.0768 0.24172,0.32558 0.099,0.62035 -0.24109,0.49801 -1.03376,0.85959 -1.61241,0.73549 -0.76948,-0.16502 -0.99607,-0.66586 -1.22078,-2.69836 -0.14307,-1.29415 -0.24109,-1.77162 -0.44724,-2.17873 -0.18574,-0.3668 -0.41226,-0.45313 -0.76674,-0.2922 -0.50551,0.22951 -0.89301,0.77989 -2.00623,2.84948 -1.344395,2.49938 -1.607026,2.82074 -2.240773,2.74177 z m -2.52752,-9.91756 c -0.07458,-0.0968 -0.346867,-0.91472 -0.374938,-1.12632 -0.03679,-0.27734 0.02918,-0.45912 0.247392,-0.68166 0.449825,-0.45875 1.057109,-0.50797 1.459712,-0.11832 0.07567,0.0732 0.137583,0.17496 0.137583,0.22606 0,0.17915 -0.217093,0.92617 -0.328811,1.13143 -0.139239,0.25584 -0.343133,0.42832 -0.635859,0.53792 -0.256253,0.0959 -0.445999,0.10755 -0.505079,0.0309 z m 36.674591,-0.0423 c -0.0334,-0.0524 -0.12911,-0.29695 -0.21264,-0.54347 -0.24461,-0.72191 -0.19979,-0.9925 0.22163,-1.33802 0.35049,-0.28736 0.7425,-0.34645 1.09899,-0.16567 0.4003,0.20299 0.43889,0.36737 0.23683,1.00874 -0.19531,0.61994 -0.35308,0.82778 -0.77799,1.02485 -0.29607,0.13732 -0.48497,0.14184 -0.56682,0.0136 z m -8.72534,-4.2904 c -0.80016,-0.11599 -1.15993,-0.23769 -1.6135,-0.54579 -0.1895,-0.12872 -0.4887,-0.38493 -0.66489,-0.56934 -0.60093,-0.62899 -0.91416,-1.52504 -0.74546,-2.13255 0.0694,-0.24993 0.17029,-0.32534 0.43525,-0.32534 0.35801,0 0.46369,0.0977 0.79742,0.73762 0.1561,0.29931 0.33342,0.59596 0.39403,0.65922 0.31024,0.32383 1.16269,0.28965 1.79931,-0.0721 1.20032,-0.68212 2.98191,-2.79068 4.74984,-5.62154 0.71752,-1.14892 1.93667,-3.28266 2.80336,-4.90643 l 0.2011,-0.37676 -0.18356,0.13794 c -0.75661,0.56857 -1.51782,0.88782 -2.12211,0.89001 -0.26258,9.3e-4 -0.78234,-0.107 -1.03349,-0.21466 -0.463,-0.19846 -1.04098,-0.72187 -1.33915,-1.21271 -0.5063,-0.83346 -0.76326,-2.14313 -0.59396,-3.0272 l 0.0222,-0.11614 -0.29788,0.1688 c -0.81663,0.46276 -1.66679,0.66994 -2.88373,0.70277 l -0.6985,0.0188 -0.36791,0.4615 c -0.90249,1.13203 -2.07021,2.16989 -2.99708,2.66374 -1.24888,0.66543 -2.79604,0.72371 -3.90058,0.14694 -0.36358,-0.18987 -0.77998,-0.53542 -1.07655,-0.8934 -0.28308,-0.3417 -0.65691,-1.07945 -0.79447,-1.56789 -0.0544,-0.19322 -0.10819,-0.35515 -0.11949,-0.35983 -0.0113,-0.005 -0.2117,0.22008 -0.44532,0.49948 -0.98345,1.1762 -1.90699,1.94761 -2.86144,2.39011 -0.50444,0.23387 -0.85828,0.31336 -1.40716,0.31615 -0.5354,0.003 -0.80799,-0.0537 -1.23497,-0.25556 -0.5519,-0.26094 -1.16148,-0.97214 -1.43944,-1.67939 -0.062,-0.15787 -0.1248,-0.27217 -0.13948,-0.254 -0.0147,0.0182 -0.10108,0.12827 -0.192,0.24469 -1.11326,1.42529 -2.0826,2.0254 -3.15361,1.95238 -0.75272,-0.0513 -1.33001,-0.29302 -1.77487,-0.7431 -0.47455,-0.48012 -0.73596,-1.04499 -0.87307,-1.88661 -0.0935,-0.57377 -0.093,-1.71349 9.4e-4,-2.32834 0.2027,-1.3266 0.8077,-3.09442 1.51397,-4.42383 1.61331,-3.03676 3.8319,-5.32218 5.8204,-5.99571 0.43022,-0.14572 1.14981,-0.18337 1.6146,-0.0845 0.41249,0.0878 0.93409,0.34631 1.28432,0.6366 l 0.2838,0.23523 0.1872,-0.24274 c 0.10296,-0.1335 0.2932,-0.34275 0.42275,-0.46498 0.2671,-0.25202 0.38481,-0.27544 0.78579,-0.15636 0.49857,0.14805 0.80805,0.63273 0.8971,1.40492 0.053,0.45949 -4.2e-4,0.78741 -0.25514,1.56973 -0.41167,1.2638 -0.91741,2.4671 -2.01368,4.79112 -1.1636,2.46678 -1.68551,3.79614 -1.90216,4.84502 -0.10032,0.48565 -0.0882,0.76627 0.0386,0.89307 0.11684,0.11685 0.17773,0.12383 0.49726,0.057 0.94706,-0.19813 2.17988,-1.29151 3.67017,-3.25507 0.69545,-0.9163 0.79662,-1.08742 1.01709,-1.72034 0.81164,-2.33006 1.50036,-3.75621 3.75878,-7.78349 0.44393,-0.79163 1.12127,-2.01083 1.50519,-2.70933 0.38393,-0.6985 0.85513,-1.54623 1.04713,-1.88384 0.45409,-0.798438 1.01581,-1.938758 1.01581,-2.062098 0,-0.0572 -0.0256,-0.0969 -0.0625,-0.0969 -0.0344,0 -0.0939,-0.0478 -0.1322,-0.10634 -0.10803,-0.16487 -0.0628,-0.52817 0.0936,-0.75239 0.24166,-0.34641 0.61786,-0.41573 1.16187,-0.21408 0.53568,0.19855 0.94616,0.68396 1.1021,1.30328 0.086,0.3416 0.0267,1.19249 -0.12267,1.759198 -0.19383,0.73547 -0.75214,2.19358 -1.35997,3.55173 -0.11878,0.26542 -0.21088,0.48729 -0.20466,0.49305 0.006,0.006 0.15419,-0.027 0.32881,-0.0729 0.43101,-0.11318 1.23463,-0.0892 1.67217,0.0499 0.80196,0.25494 1.39313,0.72475 1.83842,1.46104 0.179,0.29597 0.40042,0.94834 0.47025,1.38548 0.0653,0.40889 0.0331,1.42746 -0.0618,1.95821 -0.26154,1.46144 -0.91457,3.24155 -1.75976,4.79702 l -0.21428,0.39436 0.20228,-0.0269 c 0.36727,-0.0488 0.86228,-0.1539 1.0845,-0.23036 0.85449,-0.29398 1.80308,-1.02336 2.29953,-1.76812 0.12745,-0.1912 0.38025,-0.66745 0.56178,-1.05833 0.84424,-1.81795 2.10034,-4.13068 3.06458,-5.64254 0.35637,-0.55876 0.94679,-1.34459 1.0529,-1.40138 0.0542,-0.029 0.17057,-0.0364 0.30119,-0.0191 0.76636,0.10167 1.13157,0.68345 1.12905,1.79863 -0.002,0.97421 -0.36109,1.92944 -2.27545,6.05647 -0.72587,1.56484 -1.15255,2.54928 -1.46119,3.3712 -0.48958,1.30377 -0.63687,2.22354 -0.389,2.42925 0.0917,0.0761 0.418,0.0571 0.6245,-0.0364 0.72473,-0.32831 1.67944,-1.289 2.88842,-2.90651 1.27566,-1.70672 2.85356,-4.08189 3.10762,-4.67783 0.16687,-0.39143 1.50526,-3.04886 2.02363,-4.01803 0.58659,-1.09671 0.92373,-1.62906 1.18318,-1.8682 0.18699,-0.17237 0.20012,-0.17727 0.40898,-0.15253 0.71567,0.0848 1.11073,0.62526 1.16042,1.5876 0.0277,0.53745 7.6e-4,0.66636 -0.36884,1.76299 -1.48228,4.39795 -4.93661,11.49131 -7.89574,16.21367 -1.74115,2.77864 -3.07467,4.53414 -4.5539,5.99492 -1.15897,1.14453 -2.13535,1.79814 -3.03337,2.03061 -0.31754,0.0822 -1.03889,0.13663 -1.30318,0.0983 z m -6.54728,-14.12584 c 0.13218,-0.0534 0.35446,-0.17146 0.49397,-0.26237 0.38967,-0.25395 1.34209,-1.23566 1.82773,-1.88395 l 0.42748,-0.57064 -0.25686,-0.29719 c -0.70088,-0.81094 -1.13222,-1.73579 -1.40221,-3.00653 l -0.0989,-0.46566 -0.12783,0.27516 c -0.0703,0.15134 -0.25534,0.54187 -0.41117,0.86784 -0.39587,0.82802 -0.97068,2.15122 -1.18649,2.7312 -0.41353,1.1114 -0.56916,2.12503 -0.37727,2.45723 0.17928,0.31037 0.58628,0.36709 1.11159,0.15491 z m -13.76003,-0.13295 c 0.46876,-0.24647 1.49433,-1.84908 2.94152,-4.59656 0.1533,-0.29104 0.40437,-0.83125 0.55794,-1.20046 0.58263,-1.40083 1.30997,-2.84602 2.32444,-4.61861 0.34732,-0.60687 0.35938,-0.63663 0.28974,-0.71492 -0.24723,-0.27795 -0.81631,-0.25315 -1.43856,0.0627 -0.27626,0.14022 -0.91867,0.65181 -1.22202,0.97317 -1.63526,1.73234 -3.26822,4.79951 -3.93014,7.38196 -0.18593,0.72541 -0.24731,1.21128 -0.22755,1.80118 0.021,0.62687 0.12108,0.83269 0.45911,0.94405 0.10245,0.0338 0.12524,0.0307 0.24552,-0.0325 z m 18.20959,-5.48556 c 0.72972,-1.44604 1.14915,-2.52525 1.48896,-3.83117 0.15861,-0.60952 0.17671,-0.73046 0.18084,-1.20806 0.004,-0.44077 -0.008,-0.55009 -0.07,-0.64491 -0.0955,-0.14614 -0.252,-0.1843 -0.49223,-0.12005 -0.43997,0.11767 -0.8613,0.58278 -1.25041,1.38036 -0.53386,1.09426 -0.73112,2.11049 -0.6898,3.55357 0.0237,0.82899 0.0924,1.23459 0.27299,1.61336 0.0669,0.14037 0.0763,0.14579 0.12901,0.0746 0.0312,-0.0423 0.22506,-0.4102 0.43067,-0.81766 z m -2.84215,-2.13845 c -0.0332,-0.0323 -0.52014,-0.1415 -0.54049,-0.1212 -0.0126,0.0126 -0.0278,0.31185 -0.0336,0.66502 l -0.0106,0.64213 0.29895,-0.58659 c 0.16441,-0.32262 0.29303,-0.59233 0.2858,-0.59936 z m -38.367131,19.19495 c -2.006909,-0.16396 -3.690738,-0.63926 -5.489913,-1.54967 -1.215664,-0.61513 -2.151312,-1.28551 -3.078283,-2.20553 -0.81175,-0.80566 -1.420215,-1.64269 -1.867868,-2.56953 -0.672115,-1.39157 -0.917722,-2.47363 -0.87441,-3.85233 0.02489,-0.79225 0.0586,-1.00221 0.279899,-1.7431 0.750747,-2.51347 2.702087,-4.59161 5.097874,-5.42915 1.737126,-0.60728 3.724311,-0.66017 5.445868,-0.14495 0.267758,0.0801 0.524933,0.15519 0.5715,0.16678 0.09281,0.0231 0.03229,0.1433 1.163612,-2.31108 0.295139,-0.6403 0.751916,-1.65947 1.015064,-2.26484 0.740774,-1.70414 3.08221,-6.97619 3.497009,-7.873988 0.204393,-0.44239 0.679661,-1.41394 1.056153,-2.159 1.260682,-2.49484 2.141732,-3.94695 2.979479,-4.91067 l 0.257598,-0.29633 -0.518291,-0.0137 c -1.693642,-0.0449 -3.645268,0.32019 -5.286667,0.98891 -3.277121,1.33513 -5.685536,3.99579 -6.280848,6.93868 -0.278916,1.378798 -0.23941,2.676348 0.108988,3.579628 0.261716,0.67855 0.714119,1.2516 1.182743,1.49816 0.349411,0.18384 0.465327,0.30744 0.465327,0.49615 0,0.14212 -0.01449,0.16291 -0.143123,0.20536 -0.316039,0.1043 -1.076542,-0.11988 -1.721352,-0.50742 -0.481262,-0.28925 -0.739814,-0.49588 -1.127393,-0.90099 -0.840511,-0.87854 -1.223704,-1.62283 -1.396188,-2.71185 -0.100024,-0.63152 -0.05922,-1.817218 0.0862,-2.504618 0.415555,-1.96438 1.564934,-3.92437 3.253474,-5.54801 1.000384,-0.96193 2.130014,-1.74283 3.473859,-2.40145 1.822861,-0.89338 3.452973,-1.2743 5.681358,-1.32759 1.465541,-0.0351 2.688865,0.0562 3.881263,0.28952 l 0.452264,0.0885 0.418677,-0.21506 c 0.756518,-0.3886 1.496991,-0.5417 1.998501,-0.41322 0.499885,0.12807 1.002242,0.48991 1.183204,0.85226 0.12642,0.25312 0.132415,0.54426 0.01366,0.66302 -0.09373,0.0937 -0.404156,0.17557 -0.522939,0.13787 -0.168682,-0.0535 -0.06558,0.0227 0.290618,0.21491 1.103893,0.59566 2.322297,1.63229 3.041214,2.58751 0.380086,0.50501 0.8255,1.3008 1.06813,1.90836 0.6586,1.64911 0.80773,3.368 0.44846,5.168718 -0.52295,2.62106 -2.320945,5.07017 -4.815182,6.55891 -0.275031,0.16416 -0.660629,0.37079 -0.856882,0.45918 -0.196253,0.0884 -0.356675,0.17104 -0.356497,0.18367 0,0.0126 0.07632,0.0663 0.169198,0.11939 0.232973,0.13304 0.839245,0.59422 1.196975,0.91051 1.128272,0.99758 1.945805,2.41789 2.356641,4.09422 0.189277,0.77231 0.234438,1.20296 0.233075,2.2225 -0.0011,0.77845 -0.01708,1.02038 -0.0977,1.47374 -0.282296,1.58763 -0.929932,3.05215 -2.066112,4.67217 -0.501214,0.71466 -1.016804,1.3174 -1.76878,2.06776 -1.486945,1.48375 -2.955768,2.53681 -4.891959,3.50725 -1.988012,0.99641 -3.932961,1.56088 -6.141297,1.78234 -0.690947,0.0693 -2.321989,0.0789 -3.066203,0.0181 z m 2.075057,-3.04499 c 1.905627,-0.1223 3.657977,-0.64525 5.82011,-1.73688 3.633266,-1.83438 6.064685,-4.52813 6.698246,-7.42094 0.08332,-0.38041 0.09421,-0.55316 0.09516,-1.50909 0.0012,-1.1778 -0.05535,-1.6202 -0.301215,-2.35773 -0.307585,-0.92269 -0.910209,-1.84784 -1.538414,-2.3618 -1.04656,-0.85622 -2.280374,-1.23592 -4.339941,-1.33559 -0.884627,-0.0428 -1.171402,-0.0991 -1.559598,-0.30599 -0.286296,-0.15259 -0.659003,-0.47559 -0.786122,-0.68127 -0.276809,-0.44789 -0.07297,-0.86124 0.569832,-1.15553 0.357683,-0.16375 0.796201,-0.22329 1.656703,-0.22494 0.808812,-0.002 1.029224,-0.0314 1.72325,-0.2336 2.251413,-0.65583 4.14707,-2.05823 5.465732,-4.04355 0.641566,-0.96591 1.015607,-1.78297 1.269357,-2.772828 0.197599,-0.77082 0.248704,-1.24893 0.220781,-2.06552 -0.0321,-0.9387 -0.188726,-1.60501 -0.559325,-2.37948 -0.497489,-1.03964 -1.14148,-1.71848 -2.10936,-2.22351 -0.462301,-0.24123 -1.212122,-0.52669 -1.25567,-0.47805 -1.221935,1.36487 -2.827388,4.16932 -4.539505,7.929728 -0.497349,1.09235 -0.98182,2.20074 -2.127927,4.86833 -1.610152,3.74768 -2.666259,6.14356 -3.238623,7.34714 l -0.282939,0.59496 0.212518,0.23054 c 0.311256,0.33762 0.662076,0.82362 0.842167,1.16665 0.233972,0.44566 0.442582,1.11566 0.501548,1.61083 0.156769,1.31654 -0.462504,2.52019 -1.350298,2.62451 -0.255702,0.03 -0.64171,-0.0809 -0.786951,-0.22611 -0.09266,-0.0927 -0.109449,-0.1467 -0.107891,-0.34738 0.001,-0.1307 0.01827,-0.32278 0.03834,-0.42683 0.03132,-0.16232 0.02126,-0.21946 -0.07081,-0.40217 -0.215603,-0.42786 -0.735838,-1.16547 -0.822003,-1.16547 -0.0167,0 -0.168034,0.23336 -0.336291,0.51858 -0.896914,1.52038 -2.030892,3.02974 -2.836508,3.77548 -0.564073,0.52215 -1.213379,0.93785 -1.763497,1.12904 -0.314245,0.10921 -0.987793,0.14925 -1.407739,0.0837 -0.605031,-0.0945 -0.943842,-0.332 -1.191687,-0.83544 -0.257351,-0.52275 -0.203105,-1.27823 0.129331,-1.80116 0.238157,-0.37463 0.655252,-0.53998 0.999401,-0.39619 0.117726,0.0492 0.150843,0.0802 0.1116,0.10444 -0.04196,0.0259 -0.0347,0.04 0.02928,0.0567 0.05309,0.0139 0.07821,0.004 0.06682,-0.0259 -0.01004,-0.0265 0.08303,-0.10097 0.206839,-0.16555 0.626444,-0.32677 1.272214,-1.05817 2.130628,-2.41314 0.388068,-0.61255 1.073796,-1.81011 1.073796,-1.87529 0,-0.0258 -0.195263,-0.10589 -0.433917,-0.17801 -1.425329,-0.43074 -2.429868,-0.44775 -3.566826,-0.0604 -1.441569,0.4911 -2.448564,1.47065 -3.05275,2.96953 -0.239969,0.59533 -0.312507,0.97745 -0.312507,1.64626 0,0.88321 0.181102,1.65512 0.590384,2.51638 0.499296,1.05069 1.463873,2.09005 2.584977,2.78538 1.018163,0.63148 2.2638,1.12646 3.449806,1.37083 0.923287,0.19025 1.551791,0.24941 3.32389,0.31289 0.105173,0.004 0.495698,-0.0127 0.867833,-0.0366 z"
       id="path1459"
       inkscape:connector-curvature="0" />
  </g>
</svg>
