<?xml version="1.0" encoding="UTF-8" standalone="no"?>
<!-- Created with Inkscape (http://www.inkscape.org/) -->

<svg
   xmlns:dc="http://purl.org/dc/elements/1.1/"
   xmlns:cc="http://creativecommons.org/ns#"
   xmlns:rdf="http://www.w3.org/1999/02/22-rdf-syntax-ns#"
   xmlns:svg="http://www.w3.org/2000/svg"
   xmlns="http://www.w3.org/2000/svg"
   xmlns:sodipodi="http://sodipodi.sourceforge.net/DTD/sodipodi-0.dtd"
   xmlns:inkscape="http://www.inkscape.org/namespaces/inkscape"
   width="168.13078mm"
   height="154.94896mm"
   viewBox="0 0 168.13078 154.94896"
   version="1.1"
   id="svg8"
   inkscape:version="0.92.3 (2405546, 2018-03-11)"
   sodipodi:docname="BabyInside.svg">
  <defs
     id="defs2" />
  <sodipodi:namedview
     id="base"
     pagecolor="#ffffff"
     bordercolor="#666666"
     borderopacity="1.0"
     inkscape:pageopacity="0.0"
     inkscape:pageshadow="2"
     inkscape:zoom="0.98994949"
     inkscape:cx="218.97326"
     inkscape:cy="264.97879"
     inkscape:document-units="mm"
     inkscape:current-layer="layer1"
     showgrid="false"
     inkscape:window-width="2354"
     inkscape:window-height="1368"
     inkscape:window-x="-7"
     inkscape:window-y="0"
     inkscape:window-maximized="0"
     fit-margin-top="0"
     fit-margin-left="0"
     fit-margin-right="0"
     fit-margin-bottom="0" />
  <metadata
     id="metadata5">
    <rdf:RDF>
      <cc:Work
         rdf:about="">
        <dc:format>image/svg+xml</dc:format>
        <dc:type
           rdf:resource="http://purl.org/dc/dcmitype/StillImage" />
        <dc:title></dc:title>
      </cc:Work>
    </rdf:RDF>
  </metadata>
  <g
     inkscape:label="Layer 1"
     inkscape:groupmode="layer"
     id="layer1"
     transform="translate(-17.10586,-60.795839)">
    <path
       style="fill:#000000;stroke-width:0.16933332"
       d="m 89.314254,215.70039 c -13.977395,-0.81176 -25.67986,-3.54393 -35.559999,-8.30216 -17.804663,-8.57465 -30.839192,-24.81715 -35.06441,-43.69423 -1.16365,-5.19886 -1.593579,-9.41937 -1.583823,-15.548 0.01017,-6.38808 0.552184,-10.87803 2.015025,-16.69209 1.207777,-4.80032 2.614568,-8.58676 4.996844,-13.44924 5.12703,-10.46483 11.348985,-17.91304 22.444083,-26.867478 5.52695,-4.460595 12.811619,-9.451375 18.62228,-12.758261 3.592861,-2.044718 4.337631,-2.439236 8.128,-4.30554 13.230264,-6.514326 25.892172,-10.312736 40.639986,-12.191468 13.87408,-1.767426 27.57379,-1.392909 39.91234,1.091107 2.46757,0.496778 8.18375,1.97929 8.3771,2.172632 0.059,0.05898 -2.46484,18.008679 -2.58393,18.377249 -0.0557,0.172425 -0.2148,0.118221 -0.62284,-0.212211 -2.47221,-2.002033 -7.49766,-4.156293 -13.07867,-5.606437 -6.55631,-1.703559 -12.65028,-2.358603 -21.92867,-2.357121 -6.61637,0.001 -9.0832,0.161269 -14.224,0.923803 -10.808034,1.603158 -23.269314,5.58662 -35.983316,11.502683 -0.8382,0.39003 -1.862253,0.863987 -2.275672,1.053239 -2.6041,1.19208 -9.247158,4.508817 -11.101661,5.54282 -10.65149,5.938883 -20.076065,14.770453 -27.300063,25.582313 -4.774509,7.14581 -8.745249,16.27287 -9.687434,22.26733 -1.195928,7.60885 -0.682138,14.02202 1.70144,21.23754 2.573882,7.7916 8.040898,16.42128 14.360765,22.66847 4.665951,4.6123 9.28527,7.90366 15.506626,11.04881 11.43869,5.78272 25.043564,8.79905 39.962665,8.86012 4.928113,0.0202 6.80357,-0.0946 12.27665,-0.75153 17.06975,-2.04872 32.34697,-7.83487 44.45792,-16.83814 10.38773,-7.72223 19.28842,-18.67159 23.30042,-28.66347 6.02937,-15.01613 4.63791,-27.85692 -4.48112,-41.35313 -5.27634,-7.80901 -11.91505,-13.06326 -21.02855,-16.64319 -5.33479,-2.09558 -12.05828,-3.617413 -17.18734,-3.890272 l -0.762,-0.04054 -0.0441,-7.599719 -0.0441,-7.599721 1.22943,0.119529 c 7.31543,0.711228 17.01749,3.79654 23.45116,7.45761 5.01887,2.855976 8.66307,5.620786 12.59077,9.552457 7.39267,7.400136 12.38497,15.981276 14.69532,25.259436 0.58988,2.36883 1.24234,6.04906 1.57404,8.87841 0.33149,2.82753 0.28106,10.59684 -0.0885,13.63133 -2.10481,17.28332 -10.40698,32.8513 -23.56138,44.18167 -9.14119,7.87364 -19.28021,13.46294 -33.10467,18.24951 -8.78318,3.04108 -15.77335,4.55717 -24.89199,5.39881 -2.65828,0.24536 -11.711533,0.44316 -14.054656,0.30707 z M 69.057463,191.26407 c -0.419415,-0.18135 -1.166446,-0.8976 -1.409153,-1.3511 -0.152041,-0.2841 -0.684396,-20.11805 -0.685597,-25.5433 l -4.59e-4,-2.07434 h 2.023532 c 1.975856,0 2.065672,0.0166 3.81201,0.70628 l 1.788475,0.70628 -0.103598,12.88272 c -0.05698,7.0855 -0.171862,13.15637 -0.255294,13.49083 -0.270253,1.08337 -0.592599,1.23013 -2.827999,1.28748 -1.089985,0.028 -2.143848,-0.0192 -2.341917,-0.10485 z m 26.217597,-4.67349 c -0.937816,-0.464 -1.294696,-0.74142 -1.479819,-1.15035 -0.135706,-0.29977 -0.549533,-3.1688 -0.93259,-6.46556 -1.17718,-10.13136 -1.626261,-13.54248 -1.83399,-13.93063 -0.110246,-0.20599 -0.437012,-0.49687 -0.726149,-0.64639 -0.491929,-0.25438 -0.553197,-0.25132 -0.953711,0.0477 -0.562774,0.42017 -2.203074,3.32492 -2.88293,5.10529 -1.13102,2.96184 -1.298118,3.88951 -1.270488,7.05335 0.01384,1.58327 0.112421,4.07075 0.219099,5.52775 0.256796,3.50732 0.186705,3.70248 -1.515466,4.2195 -0.865449,0.26287 -1.506269,0.34732 -2.267615,0.29884 -0.949847,-0.0605 -1.125029,-0.13135 -1.668763,-0.67508 -0.535275,-0.53528 -0.619039,-0.7359 -0.704489,-1.68726 -0.05334,-0.59386 -0.288402,-6.83285 -0.52236,-13.86442 -0.233958,-7.03156 -0.464644,-13.29901 -0.512638,-13.92766 l -0.08726,-1.143 h 4.149849 4.149848 v 3.52213 c 0,3.87558 0.05614,4.11457 0.85556,3.64234 0.370945,-0.21912 0.484404,-0.43987 0.574271,-1.11732 0.117906,-0.88883 0.661375,-2.10168 1.470961,-3.28271 0.721523,-1.05257 1.993165,-1.62247 3.669599,-1.64458 1.53186,-0.0202 2.523829,0.24163 3.258981,0.86022 0.59936,0.50433 1.346625,1.60944 1.346625,1.99148 0,0.13912 0.22669,0.8236 0.503747,1.52105 0.549377,1.38301 0.717517,2.25288 1.100604,5.6941 0.711627,6.39249 0.689457,17.51765 -0.0382,19.14436 -0.450797,1.00785 -0.863674,1.32919 -1.839307,1.4315 -0.709158,0.0744 -1.004374,-6.7e-4 -2.063418,-0.52466 z m 8.80923,-2.49358 c -0.36922,-0.30268 -0.84027,-0.66463 -1.04677,-0.80433 -0.53205,-0.35993 -1.02328,-1.39721 -1.02328,-2.16072 0,-0.51544 0.20407,-0.9468 0.98453,-2.08108 0.5415,-0.78698 2.03543,-2.95487 3.31985,-4.81754 1.28442,-1.86266 2.41061,-3.57716 2.50266,-3.81 0.35305,-0.89311 0.01,-1.37755 -3.51761,-4.96187 -1.86957,-1.89984 -3.71954,-3.94188 -4.11103,-4.53786 -0.88741,-1.35093 -1.269857,-2.60254 -1.17895,-3.85823 0.0644,-0.88974 0.17713,-1.10271 1.75795,-3.32137 0.92901,-1.30387 1.89508,-2.6899 2.14681,-3.08008 0.53087,-0.82283 2.61358,-2.98249 3.59912,-3.73209 0.97464,-0.74131 1.93049,-1.20661 3.07569,-1.49724 0.88691,-0.22508 1.07107,-0.22544 1.60321,-0.003 0.33065,0.13816 0.78845,0.50289 1.01732,0.81052 0.69338,0.93197 1.33112,2.56435 1.33112,3.40718 0,0.7022 -0.0943,0.88275 -1.02214,1.95818 -0.56218,0.65156 -1.28869,1.62745 -1.61446,2.16864 -0.32577,0.5412 -1.37076,1.88869 -2.32219,2.99443 -2.01657,2.34364 -2.35227,2.87945 -2.23443,3.56645 0.11251,0.65587 0.4478,1.00274 1.49755,1.54928 2.75272,1.43315 5.54734,4.54948 6.3923,7.12815 0.43137,1.31648 0.45815,1.54513 0.32034,2.73513 -0.20252,1.7487 -0.4801,2.45618 -1.72357,4.39288 -1.32306,2.06067 -4.41995,6.37035 -5.11861,7.12312 -0.79423,0.85577 -1.95283,1.38188 -3.04314,1.38188 -0.78842,0 -1.01755,-0.0792 -1.59227,-0.55033 z m 17.01765,-8.11397 c -1.2863,-0.12774 -2.25826,-0.6242 -2.50799,-1.28103 -0.0878,-0.23088 -0.30782,-5.84099 -0.48898,-12.46689 -0.18115,-6.62591 -0.36131,-12.86626 -0.40036,-13.86744 l -0.071,-1.82034 h 2.12278 c 2.06043,0 2.16842,0.0186 3.67704,0.63177 1.04561,0.42501 1.61171,0.75347 1.72977,1.00363 0.2201,0.4664 -0.35275,26.34844 -0.59735,26.9889 -0.0904,0.23666 -0.26753,0.51457 -0.39365,0.61759 -0.30357,0.24796 -1.66164,0.33369 -3.07027,0.19381 z m 21.13119,-2.44632 c -0.71086,-0.17185 -1.12646,-0.38267 -1.39091,-0.70556 -0.36121,-0.44104 -0.37739,-0.60192 -0.38323,-3.81013 -0.005,-2.8315 -0.0457,-3.36487 -0.26251,-3.44805 -0.46636,-0.17895 -0.91432,0.33581 -2.66639,3.06403 -1.92894,3.00363 -2.60322,3.66683 -4.05828,3.99159 -0.79073,0.17648 -1.00874,0.15851 -1.90521,-0.15708 -1.09569,-0.38573 -1.43633,-0.71832 -2.50683,-2.44768 -1.27338,-2.05709 -1.70365,-4.38817 -1.7078,-9.2525 -0.005,-5.8535 1.1248,-10.92964 3.05818,-13.74027 0.56663,-0.82374 2.21313,-2.48176 2.97909,-2.99994 0.20625,-0.13953 0.64016,-0.48171 0.96425,-0.7604 0.79787,-0.68611 2.73547,-1.55733 4.0245,-1.80957 l 1.05774,-0.20698 -0.0938,-1.62908 c -0.0516,-0.896 -0.20074,-4.06749 -0.33139,-7.04776 l -0.23756,-5.41866 0.37432,-0.30172 c 0.94905,-0.76498 1.34112,-0.87071 3.25298,-0.87725 1.82757,-0.006 1.88727,0.006 3.16824,0.64547 0.71806,0.35851 1.37722,0.73951 1.46479,0.84667 0.0989,0.12099 0.10245,1.83124 0.009,4.51283 -0.0824,2.3749 -0.34465,12.5857 -0.5828,22.69066 -0.23815,10.10497 -0.46374,18.46318 -0.5013,18.57379 -0.0907,0.26723 -1.19023,0.56223 -2.03435,0.54583 -0.37253,-0.007 -1.13353,-0.12345 -1.6911,-0.25824 z m -7.06248,-8.79263 c 0.99822,-0.39941 2.75864,-2.34615 3.52722,-3.90054 l 0.65437,-1.32342 0.0529,-5.46178 c 0.0546,-5.63865 0.003,-6.15634 -0.61944,-6.15634 -0.49906,0 -1.87525,1.67312 -2.6578,3.23128 -1.48135,2.94954 -2.10711,6.17401 -2.10866,10.86572 -0.001,3.33953 -0.049,3.22539 1.15141,2.74508 z m 20.68772,-1.7562 c -1.3941,-0.19637 -2.52757,-1.00985 -4.1502,-2.97855 -1.97717,-2.39886 -3.11651,-7.1715 -2.63919,-11.05552 0.46917,-3.81768 1.58585,-7.91216 2.89616,-10.61914 1.02971,-2.1273 3.1184,-4.54241 4.69867,-5.43297 3.09337,-1.74326 7.91404,-0.57869 9.29588,2.24569 1.53726,3.14204 -0.14547,9.23422 -3.47192,12.56979 -1.5033,1.50742 -2.66038,2.05944 -4.56596,2.17832 -2.04615,0.12766 -2.05981,0.1473 -2.05863,2.9595 5.1e-4,1.23402 0.0829,2.53877 0.18303,2.89945 0.26075,0.93909 0.88635,1.46088 1.75152,1.46088 1.21925,0 3.37143,-1.8522 4.54902,-3.91496 0.95464,-1.67221 3.08241,-1.79363 4.7227,-0.26951 0.84958,0.78942 0.8502,2.76609 0.001,3.84113 -0.25946,0.32854 -0.67881,1.01644 -0.93189,1.52868 -0.88664,1.79453 -2.91225,3.58448 -4.81839,4.25781 -1.08796,0.38431 -3.87774,0.55256 -5.462,0.3294 z m 1.9068,-16.37628 c 1.18072,-0.59832 2.63221,-2.1154 3.31175,-3.4614 0.59376,-1.17611 1.16206,-3.93047 0.95284,-4.61812 -0.31127,-1.02308 -1.1243,-1.2262 -2.14149,-0.535 -1.43952,0.97818 -3.02418,4.24892 -3.28312,6.77638 -0.10157,0.99138 0.0125,2.28187 0.20172,2.28187 0.0454,0 0.47668,-0.19968 0.9583,-0.44373 z m -88.827551,12.02132 c -1.179584,-0.89672 -2.144698,-1.75214 -2.144698,-1.90093 0,-0.31879 2.024876,-3.33887 2.878667,-4.2935 l 0.592666,-0.66266 1.354667,0.73522 c 2.019229,1.09591 3.761491,2.26524 3.978056,2.6699 0.105532,0.19719 0.168042,0.5012 0.13891,0.67559 -0.02913,0.17439 -0.799523,1.23726 -1.711982,2.36193 -2.182561,2.69017 -2.101424,2.68356 -5.086286,0.41445 z M 47.40712,145.43519 c -1.224179,-0.63832 -1.88337,-2.00389 -2.283201,-4.72986 -0.118889,-0.81055 -0.119057,-5.01342 -5.08e-4,-13.29266 0.179251,-12.52078 0.35456,-16.82838 0.715894,-17.59046 0.459708,-0.96955 3.695315,-2.02132 5.524691,-1.79586 0.62897,0.0775 1.035963,0.23661 1.312333,0.51298 0.376334,0.37633 0.400455,0.52167 0.397995,2.39798 -0.005,3.84519 -0.508275,9.39684 -1.119837,12.35404 -0.142067,0.68697 -0.232024,1.32788 -0.199903,1.42424 0.03212,0.0964 0.431387,-0.34323 0.887259,-0.97686 1.88044,-2.61369 2.999022,-3.43582 4.856143,-3.56914 2.52606,-0.18134 3.91108,1.07158 4.637398,4.19508 0.381911,1.64239 0.388078,6.09147 0.01207,8.71057 -0.982456,6.84343 -3.572709,10.7367 -7.737541,11.6299 -1.157941,0.24833 -2.830331,0.0864 -3.702419,-0.35852 -0.702639,-0.35844 -1.017243,-0.33339 -1.017243,0.081 0,0.36648 -1.005051,1.27314 -1.410025,1.27199 -0.202388,-5e-4 -0.595287,-0.11957 -0.87311,-0.26443 z m 6.085882,-5.01136 c 1.149386,-0.5237 2.212509,-5.16406 2.555663,-11.15506 0.16754,-2.92503 -0.200164,-3.50663 -1.360852,-2.15244 -1.384813,1.61569 -2.059603,3.84046 -2.295833,7.56933 -0.08584,1.35502 -0.206091,3.12884 -0.267218,3.94183 -0.145158,1.9306 0.168828,2.34283 1.36824,1.79634 z m 66.258828,2.60984 c -2.48838,-1.96741 -2.65173,-2.22113 -1.88881,-2.93382 0.2417,-0.22578 0.6376,-0.75342 0.8798,-1.17252 0.24219,-0.4191 0.73024,-1.09657 1.08455,-1.5055 0.35431,-0.40893 0.6442,-0.83756 0.6442,-0.9525 0,-0.41546 0.97991,-0.43531 1.56534,-0.0317 1.16547,0.80347 3.27216,2.38796 3.51601,2.64446 0.72363,0.76115 0.99954,1.70792 0.49773,1.70792 -0.0781,0 -0.65464,0.66675 -1.28117,1.48167 -1.48283,1.92869 -2.10023,2.58233 -2.43915,2.58233 -0.15187,0 -1.3122,-0.81915 -2.5785,-1.82033 z m -52.027576,-3.58091 c -1.334499,-0.68202 -2.23922,-1.56765 -2.757154,-2.69897 -0.366839,-0.80128 -0.408944,-1.07876 -0.327362,-2.15746 0.273404,-3.61501 3.540717,-6.9963 8.418516,-8.71219 1.652402,-0.58128 1.608426,-0.49203 1.390687,-2.82227 -0.202035,-2.16218 -0.445834,-3.09987 -0.805967,-3.09987 -0.299822,0 -0.816276,0.69677 -2.196478,2.96333 -1.359518,2.23261 -2.462796,3.62193 -3.188019,4.01457 -0.799084,0.43264 -2.314073,0.39925 -2.902966,-0.064 -0.434568,-0.34183 -0.460937,-0.43318 -0.378803,-1.31233 0.120257,-1.28722 0.64765,-2.77188 1.829309,-5.14968 1.825329,-3.67302 4.029112,-6.60522 5.482814,-7.29505 0.704843,-0.33447 1.420329,-0.3417 2.247663,-0.0227 0.351134,0.13537 1.552827,0.4036 2.670427,0.59604 2.345109,0.40382 2.856636,0.57734 3.183404,1.07994 0.68888,1.05954 0.702437,1.30862 0.651178,11.9632 -0.02711,5.63457 -0.08868,10.41051 -0.136827,10.61319 -0.195131,0.82147 -3.055791,2.08681 -4.717804,2.08681 -0.688675,0 -0.790797,-0.0569 -1.192974,-0.66462 -0.241904,-0.36554 -0.537252,-0.70201 -0.656327,-0.7477 -0.119075,-0.0457 -0.550885,0.14318 -0.959577,0.41972 -1.480745,1.00196 -2.396325,1.37867 -3.537073,1.45532 -0.975287,0.0655 -1.216403,0.0148 -2.116667,-0.44529 z m 4.91499,-4.9292 c 1.99149,-0.50934 2.002941,-0.52189 2.248266,-2.46424 0.230317,-1.82354 0.16744,-2.00068 -0.629087,-1.77224 -2.493826,0.71522 -5.166133,3.68609 -3.951835,4.39336 0.431046,0.25106 0.84702,0.22308 2.332656,-0.15688 z m 36.283326,4.26973 c -0.43799,-0.15911 -1.14284,-0.53537 -1.56634,-0.83613 -0.93251,-0.66227 -0.92981,-0.62929 -0.35309,-4.3087 0.4234,-2.7013 0.94933,-5.02242 1.36154,-6.00896 0.22466,-0.5377 0.20971,-0.57417 -0.83525,-2.03816 -1.32705,-1.8592 -1.53085,-2.25676 -1.9496,-3.80323 -0.46536,-1.7186 -0.65486,-3.049 -0.85378,-5.99398 -0.23065,-3.41461 -0.49015,-6.08613 -0.68666,-7.06885 -0.30877,-1.54416 0.48106,-2.24097 3.01128,-2.65665 1.28581,-0.21123 2.3532,-0.12308 2.84259,0.23477 0.25233,0.18451 0.29606,0.60881 0.33472,3.24742 0.0245,1.66935 0.1312,3.72098 0.2372,4.55918 0.24252,1.91776 0.68556,4.1917 0.85077,4.36667 0.0692,0.0733 0.37391,-1.37446 0.67703,-3.21733 1.26172,-7.67066 2.26924,-11.83425 3.4215,-14.1393 0.26594,-0.53201 0.63553,-1.04864 0.82131,-1.148063 0.712,-0.381047 3.7818,0.761513 4.34164,1.615933 0.36774,0.56125 0.2515,2.00073 -0.45308,5.6104 -1.46159,7.48796 -6.33396,27.26831 -7.46065,30.28801 -0.27017,0.72408 -0.43645,0.91204 -1.0861,1.22767 -0.91164,0.44291 -1.57868,0.46032 -2.65503,0.0693 z m -22.253452,-4.34255 c -0.998028,-0.43437 -1.777619,-1.77772 -2.175191,-3.74819 -0.353541,-1.75223 -0.367767,-3.625 -0.131759,-17.34455 0.191598,-11.13788 0.330527,-14.006593 0.712933,-14.721124 0.254039,-0.474677 1.302706,-0.982644 2.84061,-1.375974 1.930998,-0.493865 3.258195,-0.41773 3.949785,0.226582 0.37032,0.345008 0.372594,0.381069 0.279083,4.426176 -0.104304,4.51204 -0.559147,8.79717 -1.250703,11.78301 -0.05777,0.24942 0.432986,-0.28432 1.194618,-1.29926 1.965373,-2.61902 2.934141,-3.25119 5.003964,-3.26531 1.924448,-0.0131 3.127212,0.88397 3.868422,2.88534 1.30148,3.51414 0.73748,11.47021 -1.127827,15.90978 -0.634067,1.50914 -1.525411,2.81447 -2.644786,3.87313 -2.072528,1.96011 -5.175747,2.57235 -7.404003,1.46075 -0.699069,-0.34874 -0.734837,-0.3395 -0.980388,0.25331 -0.241003,0.58183 -0.92394,1.18287 -1.332792,1.17296 -0.150424,-0.004 -0.511308,-0.11013 -0.801966,-0.23663 z m 6.500336,-5.47206 c 0.724657,-0.87847 1.481379,-4.19853 1.895184,-8.31495 0.194599,-1.93583 0.233553,-4.58879 0.0735,-5.00588 -0.371399,-0.96785 -1.966289,0.85036 -2.753851,3.13945 -0.430457,1.25114 -0.661235,2.7987 -0.868106,5.82137 -0.09561,1.397 -0.220211,2.96355 -0.276891,3.48123 -0.08421,0.76913 -0.04782,0.99645 0.199008,1.24329 0.411424,0.41142 1.233959,0.23823 1.731156,-0.36451 z"
       id="path826"
       inkscape:connector-curvature="0" />
  </g>
</svg>
